<?xml version="1.0" encoding="utf-8" standalone="no"?>
<!DOCTYPE svg PUBLIC "-//W3C//DTD SVG 1.1//EN"
  "http://www.w3.org/Graphics/SVG/1.1/DTD/svg11.dtd">
<svg xmlns:xlink="http://www.w3.org/1999/xlink" width="460.8pt" height="345.6pt" viewBox="0 0 460.8 345.6" xmlns="http://www.w3.org/2000/svg" version="1.1">
 <metadata>
  <rdf:RDF xmlns:dc="http://purl.org/dc/elements/1.1/" xmlns:cc="http://creativecommons.org/ns#" xmlns:rdf="http://www.w3.org/1999/02/22-rdf-syntax-ns#">
   <cc:Work>
    <dc:type rdf:resource="http://purl.org/dc/dcmitype/StillImage"/>
    <dc:date>2024-12-08T12:30:11.835336</dc:date>
    <dc:format>image/svg+xml</dc:format>
    <dc:creator>
     <cc:Agent>
      <dc:title>Matplotlib v3.8.4, https://matplotlib.org/</dc:title>
     </cc:Agent>
    </dc:creator>
   </cc:Work>
  </rdf:RDF>
 </metadata>
 <defs>
  <style type="text/css">*{stroke-linejoin: round; stroke-linecap: butt}</style>
 </defs>
 <g id="figure_1">
  <g id="patch_1">
   <path d="M 0 345.6 
L 460.8 345.6 
L 460.8 0 
L 0 0 
z
" style="fill: #ffffff"/>
  </g>
  <g id="axes_1">
   <g id="patch_2">
    <path d="M 57.6 307.584 
L 414.72 307.584 
L 414.72 41.472 
L 57.6 41.472 
z
" style="fill: #ffffff"/>
   </g>
   <g id="matplotlib.axis_1">
    <g id="xtick_1">
     <g id="line2d_1">
      <defs>
       <path id="m4dee209cea" d="M 0 0 
L 0 3.5 
" style="stroke: #000000; stroke-width: 0.8"/>
      </defs>
      <g>
       <use xlink:href="#m4dee209cea" x="57.6" y="307.584" style="stroke: #000000; stroke-width: 0.8"/>
      </g>
     </g>
     <g id="text_1">
      <!-- 0.0 -->
      <g transform="translate(49.648438 322.182437) scale(0.1 -0.1)">
       <defs>
        <path id="DejaVuSans-30" d="M 2034 4250 
Q 1547 4250 1301 3770 
Q 1056 3291 1056 2328 
Q 1056 1369 1301 889 
Q 1547 409 2034 409 
Q 2525 409 2770 889 
Q 3016 1369 3016 2328 
Q 3016 3291 2770 3770 
Q 2525 4250 2034 4250 
z
M 2034 4750 
Q 2819 4750 3233 4129 
Q 3647 3509 3647 2328 
Q 3647 1150 3233 529 
Q 2819 -91 2034 -91 
Q 1250 -91 836 529 
Q 422 1150 422 2328 
Q 422 3509 836 4129 
Q 1250 4750 2034 4750 
z
" transform="scale(0.015625)"/>
        <path id="DejaVuSans-2e" d="M 684 794 
L 1344 794 
L 1344 0 
L 684 0 
L 684 794 
z
" transform="scale(0.015625)"/>
       </defs>
       <use xlink:href="#DejaVuSans-30"/>
       <use xlink:href="#DejaVuSans-2e" x="63.623047"/>
       <use xlink:href="#DejaVuSans-30" x="95.410156"/>
      </g>
     </g>
    </g>
    <g id="xtick_2">
     <g id="line2d_2">
      <g>
       <use xlink:href="#m4dee209cea" x="129.024" y="307.584" style="stroke: #000000; stroke-width: 0.8"/>
      </g>
     </g>
     <g id="text_2">
      <!-- 0.2 -->
      <g transform="translate(121.072438 322.182437) scale(0.1 -0.1)">
       <defs>
        <path id="DejaVuSans-32" d="M 1228 531 
L 3431 531 
L 3431 0 
L 469 0 
L 469 531 
Q 828 903 1448 1529 
Q 2069 2156 2228 2338 
Q 2531 2678 2651 2914 
Q 2772 3150 2772 3378 
Q 2772 3750 2511 3984 
Q 2250 4219 1831 4219 
Q 1534 4219 1204 4116 
Q 875 4013 500 3803 
L 500 4441 
Q 881 4594 1212 4672 
Q 1544 4750 1819 4750 
Q 2544 4750 2975 4387 
Q 3406 4025 3406 3419 
Q 3406 3131 3298 2873 
Q 3191 2616 2906 2266 
Q 2828 2175 2409 1742 
Q 1991 1309 1228 531 
z
" transform="scale(0.015625)"/>
       </defs>
       <use xlink:href="#DejaVuSans-30"/>
       <use xlink:href="#DejaVuSans-2e" x="63.623047"/>
       <use xlink:href="#DejaVuSans-32" x="95.410156"/>
      </g>
     </g>
    </g>
    <g id="xtick_3">
     <g id="line2d_3">
      <g>
       <use xlink:href="#m4dee209cea" x="200.448" y="307.584" style="stroke: #000000; stroke-width: 0.8"/>
      </g>
     </g>
     <g id="text_3">
      <!-- 0.4 -->
      <g transform="translate(192.496438 322.182437) scale(0.1 -0.1)">
       <defs>
        <path id="DejaVuSans-34" d="M 2419 4116 
L 825 1625 
L 2419 1625 
L 2419 4116 
z
M 2253 4666 
L 3047 4666 
L 3047 1625 
L 3713 1625 
L 3713 1100 
L 3047 1100 
L 3047 0 
L 2419 0 
L 2419 1100 
L 313 1100 
L 313 1709 
L 2253 4666 
z
" transform="scale(0.015625)"/>
       </defs>
       <use xlink:href="#DejaVuSans-30"/>
       <use xlink:href="#DejaVuSans-2e" x="63.623047"/>
       <use xlink:href="#DejaVuSans-34" x="95.410156"/>
      </g>
     </g>
    </g>
    <g id="xtick_4">
     <g id="line2d_4">
      <g>
       <use xlink:href="#m4dee209cea" x="271.872" y="307.584" style="stroke: #000000; stroke-width: 0.8"/>
      </g>
     </g>
     <g id="text_4">
      <!-- 0.6 -->
      <g transform="translate(263.920438 322.182437) scale(0.1 -0.1)">
       <defs>
        <path id="DejaVuSans-36" d="M 2113 2584 
Q 1688 2584 1439 2293 
Q 1191 2003 1191 1497 
Q 1191 994 1439 701 
Q 1688 409 2113 409 
Q 2538 409 2786 701 
Q 3034 994 3034 1497 
Q 3034 2003 2786 2293 
Q 2538 2584 2113 2584 
z
M 3366 4563 
L 3366 3988 
Q 3128 4100 2886 4159 
Q 2644 4219 2406 4219 
Q 1781 4219 1451 3797 
Q 1122 3375 1075 2522 
Q 1259 2794 1537 2939 
Q 1816 3084 2150 3084 
Q 2853 3084 3261 2657 
Q 3669 2231 3669 1497 
Q 3669 778 3244 343 
Q 2819 -91 2113 -91 
Q 1303 -91 875 529 
Q 447 1150 447 2328 
Q 447 3434 972 4092 
Q 1497 4750 2381 4750 
Q 2619 4750 2861 4703 
Q 3103 4656 3366 4563 
z
" transform="scale(0.015625)"/>
       </defs>
       <use xlink:href="#DejaVuSans-30"/>
       <use xlink:href="#DejaVuSans-2e" x="63.623047"/>
       <use xlink:href="#DejaVuSans-36" x="95.410156"/>
      </g>
     </g>
    </g>
    <g id="xtick_5">
     <g id="line2d_5">
      <g>
       <use xlink:href="#m4dee209cea" x="343.296" y="307.584" style="stroke: #000000; stroke-width: 0.8"/>
      </g>
     </g>
     <g id="text_5">
      <!-- 0.8 -->
      <g transform="translate(335.344438 322.182437) scale(0.1 -0.1)">
       <defs>
        <path id="DejaVuSans-38" d="M 2034 2216 
Q 1584 2216 1326 1975 
Q 1069 1734 1069 1313 
Q 1069 891 1326 650 
Q 1584 409 2034 409 
Q 2484 409 2743 651 
Q 3003 894 3003 1313 
Q 3003 1734 2745 1975 
Q 2488 2216 2034 2216 
z
M 1403 2484 
Q 997 2584 770 2862 
Q 544 3141 544 3541 
Q 544 4100 942 4425 
Q 1341 4750 2034 4750 
Q 2731 4750 3128 4425 
Q 3525 4100 3525 3541 
Q 3525 3141 3298 2862 
Q 3072 2584 2669 2484 
Q 3125 2378 3379 2068 
Q 3634 1759 3634 1313 
Q 3634 634 3220 271 
Q 2806 -91 2034 -91 
Q 1263 -91 848 271 
Q 434 634 434 1313 
Q 434 1759 690 2068 
Q 947 2378 1403 2484 
z
M 1172 3481 
Q 1172 3119 1398 2916 
Q 1625 2713 2034 2713 
Q 2441 2713 2670 2916 
Q 2900 3119 2900 3481 
Q 2900 3844 2670 4047 
Q 2441 4250 2034 4250 
Q 1625 4250 1398 4047 
Q 1172 3844 1172 3481 
z
" transform="scale(0.015625)"/>
       </defs>
       <use xlink:href="#DejaVuSans-30"/>
       <use xlink:href="#DejaVuSans-2e" x="63.623047"/>
       <use xlink:href="#DejaVuSans-38" x="95.410156"/>
      </g>
     </g>
    </g>
    <g id="xtick_6">
     <g id="line2d_6">
      <g>
       <use xlink:href="#m4dee209cea" x="414.72" y="307.584" style="stroke: #000000; stroke-width: 0.8"/>
      </g>
     </g>
     <g id="text_6">
      <!-- 1.0 -->
      <g transform="translate(406.768438 322.182437) scale(0.1 -0.1)">
       <defs>
        <path id="DejaVuSans-31" d="M 794 531 
L 1825 531 
L 1825 4091 
L 703 3866 
L 703 4441 
L 1819 4666 
L 2450 4666 
L 2450 531 
L 3481 531 
L 3481 0 
L 794 0 
L 794 531 
z
" transform="scale(0.015625)"/>
       </defs>
       <use xlink:href="#DejaVuSans-31"/>
       <use xlink:href="#DejaVuSans-2e" x="63.623047"/>
       <use xlink:href="#DejaVuSans-30" x="95.410156"/>
      </g>
     </g>
    </g>
    <g id="text_7">
     <!-- False Positive Rate -->
     <g transform="translate(189.693594 335.860562) scale(0.1 -0.1)">
      <defs>
       <path id="DejaVuSans-46" d="M 628 4666 
L 3309 4666 
L 3309 4134 
L 1259 4134 
L 1259 2759 
L 3109 2759 
L 3109 2228 
L 1259 2228 
L 1259 0 
L 628 0 
L 628 4666 
z
" transform="scale(0.015625)"/>
       <path id="DejaVuSans-61" d="M 2194 1759 
Q 1497 1759 1228 1600 
Q 959 1441 959 1056 
Q 959 750 1161 570 
Q 1363 391 1709 391 
Q 2188 391 2477 730 
Q 2766 1069 2766 1631 
L 2766 1759 
L 2194 1759 
z
M 3341 1997 
L 3341 0 
L 2766 0 
L 2766 531 
Q 2569 213 2275 61 
Q 1981 -91 1556 -91 
Q 1019 -91 701 211 
Q 384 513 384 1019 
Q 384 1609 779 1909 
Q 1175 2209 1959 2209 
L 2766 2209 
L 2766 2266 
Q 2766 2663 2505 2880 
Q 2244 3097 1772 3097 
Q 1472 3097 1187 3025 
Q 903 2953 641 2809 
L 641 3341 
Q 956 3463 1253 3523 
Q 1550 3584 1831 3584 
Q 2591 3584 2966 3190 
Q 3341 2797 3341 1997 
z
" transform="scale(0.015625)"/>
       <path id="DejaVuSans-6c" d="M 603 4863 
L 1178 4863 
L 1178 0 
L 603 0 
L 603 4863 
z
" transform="scale(0.015625)"/>
       <path id="DejaVuSans-73" d="M 2834 3397 
L 2834 2853 
Q 2591 2978 2328 3040 
Q 2066 3103 1784 3103 
Q 1356 3103 1142 2972 
Q 928 2841 928 2578 
Q 928 2378 1081 2264 
Q 1234 2150 1697 2047 
L 1894 2003 
Q 2506 1872 2764 1633 
Q 3022 1394 3022 966 
Q 3022 478 2636 193 
Q 2250 -91 1575 -91 
Q 1294 -91 989 -36 
Q 684 19 347 128 
L 347 722 
Q 666 556 975 473 
Q 1284 391 1588 391 
Q 1994 391 2212 530 
Q 2431 669 2431 922 
Q 2431 1156 2273 1281 
Q 2116 1406 1581 1522 
L 1381 1569 
Q 847 1681 609 1914 
Q 372 2147 372 2553 
Q 372 3047 722 3315 
Q 1072 3584 1716 3584 
Q 2034 3584 2315 3537 
Q 2597 3491 2834 3397 
z
" transform="scale(0.015625)"/>
       <path id="DejaVuSans-65" d="M 3597 1894 
L 3597 1613 
L 953 1613 
Q 991 1019 1311 708 
Q 1631 397 2203 397 
Q 2534 397 2845 478 
Q 3156 559 3463 722 
L 3463 178 
Q 3153 47 2828 -22 
Q 2503 -91 2169 -91 
Q 1331 -91 842 396 
Q 353 884 353 1716 
Q 353 2575 817 3079 
Q 1281 3584 2069 3584 
Q 2775 3584 3186 3129 
Q 3597 2675 3597 1894 
z
M 3022 2063 
Q 3016 2534 2758 2815 
Q 2500 3097 2075 3097 
Q 1594 3097 1305 2825 
Q 1016 2553 972 2059 
L 3022 2063 
z
" transform="scale(0.015625)"/>
       <path id="DejaVuSans-20" transform="scale(0.015625)"/>
       <path id="DejaVuSans-50" d="M 1259 4147 
L 1259 2394 
L 2053 2394 
Q 2494 2394 2734 2622 
Q 2975 2850 2975 3272 
Q 2975 3691 2734 3919 
Q 2494 4147 2053 4147 
L 1259 4147 
z
M 628 4666 
L 2053 4666 
Q 2838 4666 3239 4311 
Q 3641 3956 3641 3272 
Q 3641 2581 3239 2228 
Q 2838 1875 2053 1875 
L 1259 1875 
L 1259 0 
L 628 0 
L 628 4666 
z
" transform="scale(0.015625)"/>
       <path id="DejaVuSans-6f" d="M 1959 3097 
Q 1497 3097 1228 2736 
Q 959 2375 959 1747 
Q 959 1119 1226 758 
Q 1494 397 1959 397 
Q 2419 397 2687 759 
Q 2956 1122 2956 1747 
Q 2956 2369 2687 2733 
Q 2419 3097 1959 3097 
z
M 1959 3584 
Q 2709 3584 3137 3096 
Q 3566 2609 3566 1747 
Q 3566 888 3137 398 
Q 2709 -91 1959 -91 
Q 1206 -91 779 398 
Q 353 888 353 1747 
Q 353 2609 779 3096 
Q 1206 3584 1959 3584 
z
" transform="scale(0.015625)"/>
       <path id="DejaVuSans-69" d="M 603 3500 
L 1178 3500 
L 1178 0 
L 603 0 
L 603 3500 
z
M 603 4863 
L 1178 4863 
L 1178 4134 
L 603 4134 
L 603 4863 
z
" transform="scale(0.015625)"/>
       <path id="DejaVuSans-74" d="M 1172 4494 
L 1172 3500 
L 2356 3500 
L 2356 3053 
L 1172 3053 
L 1172 1153 
Q 1172 725 1289 603 
Q 1406 481 1766 481 
L 2356 481 
L 2356 0 
L 1766 0 
Q 1100 0 847 248 
Q 594 497 594 1153 
L 594 3053 
L 172 3053 
L 172 3500 
L 594 3500 
L 594 4494 
L 1172 4494 
z
" transform="scale(0.015625)"/>
       <path id="DejaVuSans-76" d="M 191 3500 
L 800 3500 
L 1894 563 
L 2988 3500 
L 3597 3500 
L 2284 0 
L 1503 0 
L 191 3500 
z
" transform="scale(0.015625)"/>
       <path id="DejaVuSans-52" d="M 2841 2188 
Q 3044 2119 3236 1894 
Q 3428 1669 3622 1275 
L 4263 0 
L 3584 0 
L 2988 1197 
Q 2756 1666 2539 1819 
Q 2322 1972 1947 1972 
L 1259 1972 
L 1259 0 
L 628 0 
L 628 4666 
L 2053 4666 
Q 2853 4666 3247 4331 
Q 3641 3997 3641 3322 
Q 3641 2881 3436 2590 
Q 3231 2300 2841 2188 
z
M 1259 4147 
L 1259 2491 
L 2053 2491 
Q 2509 2491 2742 2702 
Q 2975 2913 2975 3322 
Q 2975 3731 2742 3939 
Q 2509 4147 2053 4147 
L 1259 4147 
z
" transform="scale(0.015625)"/>
      </defs>
      <use xlink:href="#DejaVuSans-46"/>
      <use xlink:href="#DejaVuSans-61" x="48.394531"/>
      <use xlink:href="#DejaVuSans-6c" x="109.673828"/>
      <use xlink:href="#DejaVuSans-73" x="137.457031"/>
      <use xlink:href="#DejaVuSans-65" x="189.556641"/>
      <use xlink:href="#DejaVuSans-20" x="251.080078"/>
      <use xlink:href="#DejaVuSans-50" x="282.867188"/>
      <use xlink:href="#DejaVuSans-6f" x="339.544922"/>
      <use xlink:href="#DejaVuSans-73" x="400.726562"/>
      <use xlink:href="#DejaVuSans-69" x="452.826172"/>
      <use xlink:href="#DejaVuSans-74" x="480.609375"/>
      <use xlink:href="#DejaVuSans-69" x="519.818359"/>
      <use xlink:href="#DejaVuSans-76" x="547.601562"/>
      <use xlink:href="#DejaVuSans-65" x="606.78125"/>
      <use xlink:href="#DejaVuSans-20" x="668.304688"/>
      <use xlink:href="#DejaVuSans-52" x="700.091797"/>
      <use xlink:href="#DejaVuSans-61" x="767.324219"/>
      <use xlink:href="#DejaVuSans-74" x="828.603516"/>
      <use xlink:href="#DejaVuSans-65" x="867.8125"/>
     </g>
    </g>
   </g>
   <g id="matplotlib.axis_2">
    <g id="ytick_1">
     <g id="line2d_7">
      <defs>
       <path id="m7040b579de" d="M 0 0 
L -3.5 0 
" style="stroke: #000000; stroke-width: 0.8"/>
      </defs>
      <g>
       <use xlink:href="#m7040b579de" x="57.6" y="307.584" style="stroke: #000000; stroke-width: 0.8"/>
      </g>
     </g>
     <g id="text_8">
      <!-- 0.0 -->
      <g transform="translate(34.696875 311.383219) scale(0.1 -0.1)">
       <use xlink:href="#DejaVuSans-30"/>
       <use xlink:href="#DejaVuSans-2e" x="63.623047"/>
       <use xlink:href="#DejaVuSans-30" x="95.410156"/>
      </g>
     </g>
    </g>
    <g id="ytick_2">
     <g id="line2d_8">
      <g>
       <use xlink:href="#m7040b579de" x="57.6" y="256.896" style="stroke: #000000; stroke-width: 0.8"/>
      </g>
     </g>
     <g id="text_9">
      <!-- 0.2 -->
      <g transform="translate(34.696875 260.695219) scale(0.1 -0.1)">
       <use xlink:href="#DejaVuSans-30"/>
       <use xlink:href="#DejaVuSans-2e" x="63.623047"/>
       <use xlink:href="#DejaVuSans-32" x="95.410156"/>
      </g>
     </g>
    </g>
    <g id="ytick_3">
     <g id="line2d_9">
      <g>
       <use xlink:href="#m7040b579de" x="57.6" y="206.208" style="stroke: #000000; stroke-width: 0.8"/>
      </g>
     </g>
     <g id="text_10">
      <!-- 0.4 -->
      <g transform="translate(34.696875 210.007219) scale(0.1 -0.1)">
       <use xlink:href="#DejaVuSans-30"/>
       <use xlink:href="#DejaVuSans-2e" x="63.623047"/>
       <use xlink:href="#DejaVuSans-34" x="95.410156"/>
      </g>
     </g>
    </g>
    <g id="ytick_4">
     <g id="line2d_10">
      <g>
       <use xlink:href="#m7040b579de" x="57.6" y="155.52" style="stroke: #000000; stroke-width: 0.8"/>
      </g>
     </g>
     <g id="text_11">
      <!-- 0.6 -->
      <g transform="translate(34.696875 159.319219) scale(0.1 -0.1)">
       <use xlink:href="#DejaVuSans-30"/>
       <use xlink:href="#DejaVuSans-2e" x="63.623047"/>
       <use xlink:href="#DejaVuSans-36" x="95.410156"/>
      </g>
     </g>
    </g>
    <g id="ytick_5">
     <g id="line2d_11">
      <g>
       <use xlink:href="#m7040b579de" x="57.6" y="104.832" style="stroke: #000000; stroke-width: 0.8"/>
      </g>
     </g>
     <g id="text_12">
      <!-- 0.8 -->
      <g transform="translate(34.696875 108.631219) scale(0.1 -0.1)">
       <use xlink:href="#DejaVuSans-30"/>
       <use xlink:href="#DejaVuSans-2e" x="63.623047"/>
       <use xlink:href="#DejaVuSans-38" x="95.410156"/>
      </g>
     </g>
    </g>
    <g id="ytick_6">
     <g id="line2d_12">
      <g>
       <use xlink:href="#m7040b579de" x="57.6" y="54.144" style="stroke: #000000; stroke-width: 0.8"/>
      </g>
     </g>
     <g id="text_13">
      <!-- 1.0 -->
      <g transform="translate(34.696875 57.943219) scale(0.1 -0.1)">
       <use xlink:href="#DejaVuSans-31"/>
       <use xlink:href="#DejaVuSans-2e" x="63.623047"/>
       <use xlink:href="#DejaVuSans-30" x="95.410156"/>
      </g>
     </g>
    </g>
    <g id="text_14">
     <!-- True Positive Rate -->
     <g transform="translate(28.617187 219.057687) rotate(-90) scale(0.1 -0.1)">
      <defs>
       <path id="DejaVuSans-54" d="M -19 4666 
L 3928 4666 
L 3928 4134 
L 2272 4134 
L 2272 0 
L 1638 0 
L 1638 4134 
L -19 4134 
L -19 4666 
z
" transform="scale(0.015625)"/>
       <path id="DejaVuSans-72" d="M 2631 2963 
Q 2534 3019 2420 3045 
Q 2306 3072 2169 3072 
Q 1681 3072 1420 2755 
Q 1159 2438 1159 1844 
L 1159 0 
L 581 0 
L 581 3500 
L 1159 3500 
L 1159 2956 
Q 1341 3275 1631 3429 
Q 1922 3584 2338 3584 
Q 2397 3584 2469 3576 
Q 2541 3569 2628 3553 
L 2631 2963 
z
" transform="scale(0.015625)"/>
       <path id="DejaVuSans-75" d="M 544 1381 
L 544 3500 
L 1119 3500 
L 1119 1403 
Q 1119 906 1312 657 
Q 1506 409 1894 409 
Q 2359 409 2629 706 
Q 2900 1003 2900 1516 
L 2900 3500 
L 3475 3500 
L 3475 0 
L 2900 0 
L 2900 538 
Q 2691 219 2414 64 
Q 2138 -91 1772 -91 
Q 1169 -91 856 284 
Q 544 659 544 1381 
z
M 1991 3584 
L 1991 3584 
z
" transform="scale(0.015625)"/>
      </defs>
      <use xlink:href="#DejaVuSans-54"/>
      <use xlink:href="#DejaVuSans-72" x="46.333984"/>
      <use xlink:href="#DejaVuSans-75" x="87.447266"/>
      <use xlink:href="#DejaVuSans-65" x="150.826172"/>
      <use xlink:href="#DejaVuSans-20" x="212.349609"/>
      <use xlink:href="#DejaVuSans-50" x="244.136719"/>
      <use xlink:href="#DejaVuSans-6f" x="300.814453"/>
      <use xlink:href="#DejaVuSans-73" x="361.996094"/>
      <use xlink:href="#DejaVuSans-69" x="414.095703"/>
      <use xlink:href="#DejaVuSans-74" x="441.878906"/>
      <use xlink:href="#DejaVuSans-69" x="481.087891"/>
      <use xlink:href="#DejaVuSans-76" x="508.871094"/>
      <use xlink:href="#DejaVuSans-65" x="568.050781"/>
      <use xlink:href="#DejaVuSans-20" x="629.574219"/>
      <use xlink:href="#DejaVuSans-52" x="661.361328"/>
      <use xlink:href="#DejaVuSans-61" x="728.59375"/>
      <use xlink:href="#DejaVuSans-74" x="789.873047"/>
      <use xlink:href="#DejaVuSans-65" x="829.082031"/>
     </g>
    </g>
   </g>
   <g id="line2d_13">
    <path d="M 57.6 307.584 
L 60.753121 307.473003 
L 60.864169 307.434185 
L 61.144285 307.323188 
L 61.254417 307.295599 
L 61.255381 307.295599 
L 61.523778 307.184602 
L 61.635655 307.123008 
L 61.891471 307.01201 
L 61.998492 306.957153 
L 62.002579 306.957153 
L 62.435646 306.846155 
L 62.546435 306.784241 
L 62.546754 306.784241 
L 62.831846 306.673243 
L 62.94146 306.621273 
L 62.94295 306.621273 
L 63.397273 306.510276 
L 63.509301 306.474025 
L 63.948315 306.363028 
L 64.059821 306.329985 
L 64.687945 306.218987 
L 64.799602 306.198135 
L 65.466991 306.087138 
L 65.578549 306.079759 
L 66.763029 305.968762 
L 66.877387 305.957534 
L 67.367813 305.846536 
L 67.479733 305.815098 
L 67.852267 305.7041 
L 67.964227 305.671058 
L 68.368721 305.56006 
L 68.480964 305.531509 
L 68.849657 305.420511 
L 68.959371 305.381373 
L 68.960765 305.381373 
L 69.766772 305.270376 
L 69.879059 305.240862 
L 70.198445 305.129865 
L 70.310397 305.062496 
L 70.560446 304.951499 
L 70.671542 304.921023 
L 70.671554 304.921023 
L 71.009212 304.810025 
L 71.121383 304.782757 
L 71.442717 304.671759 
L 71.554243 304.637434 
L 72.385712 304.526436 
L 72.498147 304.50783 
L 73.372893 304.396832 
L 73.485622 304.38817 
L 74.5497 304.277173 
L 74.661374 304.263378 
L 75.901954 304.152381 
L 76.014826 304.135699 
L 77.312975 304.024702 
L 77.426063 304.013153 
L 78.184351 303.902155 
L 78.295746 303.887398 
L 79.188374 303.776401 
L 79.303279 303.759078 
L 80.435758 303.64808 
L 80.549817 303.630757 
L 81.447102 303.519759 
L 81.564309 303.502436 
L 82.165563 303.391439 
L 82.277655 303.373794 
L 82.95464 303.262797 
L 83.066449 303.246115 
L 83.826833 303.135118 
L 83.93904 303.115549 
L 84.816559 303.004551 
L 84.934706 302.993644 
L 86.079665 302.882647 
L 86.19147 302.865644 
L 86.307896 302.854095 
L 87.243741 302.743098 
L 87.361247 302.728662 
L 88.293112 302.617664 
L 88.40493 302.600662 
L 89.264427 302.489664 
L 89.383964 302.482607 
L 91.045094 302.371609 
L 91.16432 302.36808 
L 92.544478 302.257083 
L 92.657251 302.242647 
L 93.498946 302.131649 
L 93.619455 302.118175 
L 94.791582 302.007178 
L 94.908016 301.995629 
L 96.454198 301.884632 
L 96.566318 301.877253 
L 97.745444 301.766256 
L 98.094789 301.729363 
L 99.794846 301.618366 
L 99.918422 301.611308 
L 100.979306 301.500311 
L 101.097401 301.483308 
L 101.948413 301.372311 
L 102.061911 301.359158 
L 102.957141 301.24816 
L 103.076343 301.2241 
L 103.683414 301.113103 
L 103.796609 301.093855 
L 104.490663 300.982857 
L 104.609722 300.962005 
L 105.063531 300.851008 
L 105.17779 300.819569 
L 105.581363 300.708571 
L 105.694304 300.674246 
L 106.063479 300.563248 
L 106.176332 300.530526 
L 106.473011 300.419529 
L 106.589521 300.377183 
L 106.994616 300.266185 
L 107.106588 300.232501 
L 107.432375 300.121504 
L 107.548542 300.06793 
L 107.788258 299.956932 
L 107.902055 299.905283 
L 108.223085 299.794286 
L 108.335803 299.77183 
L 108.647042 299.660832 
L 108.764241 299.62811 
L 109.246392 299.517113 
L 109.360584 299.4799 
L 109.652822 299.368902 
L 109.764858 299.332652 
L 110.090211 299.221654 
L 110.20541 299.198877 
L 110.667417 299.08788 
L 110.778843 299.046817 
L 111.243742 298.93582 
L 111.35975 298.873584 
L 111.581623 298.762586 
L 111.696528 298.704842 
L 111.91864 298.593845 
L 112.040635 298.560481 
L 112.369525 298.449484 
L 112.481956 298.415799 
L 112.755236 298.305123 
L 112.867177 298.27208 
L 113.445821 298.161083 
L 113.560382 298.13991 
L 114.055672 298.028912 
L 114.167222 297.992662 
L 114.538951 297.881664 
L 114.658022 297.852471 
L 115.16272 297.741474 
L 115.277278 297.728642 
L 115.885316 297.617644 
L 116.002105 297.591338 
L 116.468581 297.480341 
L 116.580769 297.466226 
L 116.991484 297.355228 
L 117.104616 297.325714 
L 117.43937 297.214717 
L 117.551489 297.174937 
L 117.895254 297.06394 
L 118.011572 297.040521 
L 118.752967 296.929524 
L 118.877109 296.899368 
L 119.284892 296.788371 
L 119.400075 296.757895 
L 119.777214 296.646897 
L 119.893923 296.62412 
L 120.510123 296.513123 
L 120.625757 296.487459 
L 121.014555 296.376461 
L 121.131323 296.342456 
L 121.430847 296.231459 
L 121.546285 296.198737 
L 122.134486 296.087739 
L 122.246374 296.057584 
L 122.564987 295.946586 
L 122.677916 295.874085 
L 122.920364 295.763088 
L 123.032687 295.715288 
L 123.235985 295.604291 
L 123.353917 295.540451 
L 123.6334 295.429454 
L 123.748356 295.38807 
L 124.150606 295.277073 
L 124.266566 295.21612 
L 124.510512 295.105123 
L 124.624034 295.069193 
L 124.757995 295.012411 
L 125.026846 294.901414 
L 125.1432 294.820251 
L 125.326609 294.709253 
L 125.441975 294.64413 
L 125.607362 294.533133 
L 125.720167 294.489183 
L 125.925824 294.378185 
L 126.039171 294.319799 
L 126.163205 294.208802 
L 126.275185 294.133414 
L 126.495071 294.022416 
L 126.611983 293.948632 
L 126.809318 293.837634 
L 126.924565 293.774115 
L 127.305559 293.663118 
L 127.427944 293.617243 
L 127.624997 293.506246 
L 127.741068 293.477373 
L 127.894588 293.366376 
L 128.007421 293.296762 
L 128.178481 293.185764 
L 128.291083 293.127058 
L 128.527169 293.01606 
L 128.648977 292.980451 
L 129.00807 292.869454 
L 129.120425 292.820371 
L 129.511784 292.709373 
L 129.626736 292.634627 
L 129.80934 292.523629 
L 129.922922 292.425464 
L 130.026465 292.314466 
L 130.139326 292.221113 
L 130.250812 292.110115 
L 130.363311 291.998797 
L 130.499196 291.887799 
L 130.612407 291.80407 
L 130.752412 291.693073 
L 130.868614 291.628591 
L 131.010399 291.517594 
L 131.12234 291.449584 
L 131.278936 291.338586 
L 131.3996 291.214436 
L 131.5125 291.103439 
L 131.627707 290.995008 
L 131.768799 290.88401 
L 131.885177 290.82819 
L 132.110485 290.717193 
L 132.224704 290.670035 
L 132.469984 290.559038 
L 132.591497 290.4721 
L 132.750949 290.361103 
L 132.86459 290.294376 
L 133.014458 290.183378 
L 133.131087 290.074947 
L 133.26067 289.96395 
L 133.37896 289.851669 
L 133.49077 289.740992 
L 133.60608 289.658867 
L 133.832339 289.54787 
L 133.945523 289.465744 
L 134.122633 289.354747 
L 134.234757 289.272622 
L 134.412306 289.161624 
L 134.5287 289.058005 
L 134.6418 288.947008 
L 134.758182 288.843068 
L 134.918096 288.73207 
L 135.033 288.632301 
L 135.160751 288.521303 
L 135.279436 288.402286 
L 135.447842 288.291288 
L 135.562053 288.209805 
L 135.845922 288.098807 
L 135.961257 288.061594 
L 136.17259 287.950596 
L 136.296305 287.881303 
L 136.501133 287.770306 
L 136.622531 287.694276 
L 136.750298 287.583278 
L 136.866385 287.485434 
L 136.981417 287.374436 
L 137.09599 287.283328 
L 137.248204 287.172331 
L 137.361571 287.082827 
L 137.510339 286.97183 
L 137.629908 286.902216 
L 137.827326 286.791218 
L 137.94231 286.715509 
L 138.092636 286.604511 
L 138.208799 286.526236 
L 138.469368 286.415238 
L 138.591032 286.326697 
L 138.825525 286.215699 
L 138.941473 286.154426 
L 139.260094 286.043429 
L 139.383917 286.008782 
L 139.732908 285.897784 
L 139.850446 285.846456 
L 140.177866 285.735459 
L 140.294846 285.69985 
L 140.641889 285.588852 
L 140.755192 285.547148 
L 140.994445 285.43615 
L 141.109226 285.380331 
L 141.374292 285.269333 
L 141.48975 285.214797 
L 141.755665 285.103799 
L 141.880245 285.083589 
L 142.283042 284.972591 
L 142.41092 284.932491 
L 142.709671 284.821494 
L 142.830073 284.777544 
L 143.288634 284.666546 
L 143.415353 284.630296 
L 143.762054 284.519298 
L 143.877468 284.486256 
L 144.422742 284.375258 
L 144.537001 284.337083 
L 144.813926 284.226085 
L 144.927576 284.187268 
L 145.390838 284.076271 
L 145.504762 284.022376 
L 145.752138 283.911378 
L 145.870974 283.861975 
L 146.286358 283.750977 
L 146.406568 283.727559 
L 146.727547 283.616561 
L 146.843666 283.553363 
L 147.119142 283.442366 
L 147.231373 283.398416 
L 147.470782 283.287419 
L 147.592586 283.248281 
L 147.925173 283.137283 
L 148.043136 283.094617 
L 148.292113 282.983619 
L 148.413323 282.899248 
L 148.595039 282.788251 
L 148.712337 282.709013 
L 148.877577 282.598015 
L 148.997007 282.519739 
L 149.188362 282.408742 
L 149.30343 282.348431 
L 149.498526 282.237434 
L 149.615382 282.164291 
L 149.782383 282.053293 
L 149.898486 281.975659 
L 150.116651 281.864662 
L 150.231471 281.837073 
L 150.514667 281.726075 
L 150.632467 281.653895 
L 150.837741 281.542897 
L 150.955302 281.507609 
L 151.156159 281.396612 
L 151.272549 281.364852 
L 151.635303 281.253855 
L 151.751287 281.210226 
L 152.133556 281.099228 
L 152.250639 281.062977 
L 152.469891 280.95198 
L 152.58768 280.904822 
L 152.787747 280.793825 
L 152.924381 280.715228 
L 153.093892 280.604231 
L 153.20825 280.564451 
L 153.468588 280.453454 
L 153.588081 280.392822 
L 153.940566 280.281825 
L 154.055152 280.239158 
L 154.261505 280.12816 
L 154.382512 280.055018 
L 154.627048 279.94402 
L 154.758332 279.898787 
L 155.102722 279.787789 
L 155.222227 279.739669 
L 155.434333 279.628672 
L 155.551428 279.573815 
L 155.801553 279.462817 
L 155.939474 279.379409 
L 156.234867 279.268411 
L 156.359108 279.221895 
L 156.557009 279.110897 
L 156.685258 279.041283 
L 156.908493 278.930286 
L 157.026851 278.878316 
L 157.326256 278.767318 
L 157.440343 278.742617 
L 157.866957 278.631619 
L 157.982662 278.590877 
L 158.384072 278.47988 
L 158.512006 278.425343 
L 158.751092 278.314346 
L 158.870948 278.242165 
L 159.068908 278.131168 
L 159.186613 278.05995 
L 159.375041 277.948952 
L 159.489865 277.850787 
L 159.64247 277.739789 
L 159.758151 277.682045 
L 159.914599 277.571048 
L 160.032351 277.50785 
L 160.438832 277.396852 
L 160.557413 277.349373 
L 160.934058 277.238697 
L 161.052571 277.19186 
L 161.319096 277.080862 
L 161.446779 277.018947 
L 161.831343 276.90795 
L 161.944733 276.864321 
L 162.372378 276.753323 
L 162.493437 276.705524 
L 162.673524 276.594526 
L 162.790985 276.526195 
L 163.026649 276.415198 
L 163.14433 276.354246 
L 163.332543 276.243248 
L 163.447061 276.176521 
L 163.654335 276.065524 
L 163.771629 276.008742 
L 164.169609 275.897744 
L 164.283151 275.850907 
L 164.530407 275.73991 
L 164.645475 275.679599 
L 164.82621 275.568602 
L 164.947038 275.487759 
L 165.161076 275.376762 
L 165.28233 275.310035 
L 165.459871 275.199038 
L 165.572843 275.12397 
L 165.834109 275.012972 
L 165.946775 274.951058 
L 166.142401 274.84006 
L 166.256955 274.773333 
L 166.441622 274.662336 
L 166.588577 274.552301 
L 166.762434 274.441303 
L 166.892635 274.362386 
L 167.063639 274.251388 
L 167.197588 274.194607 
L 167.460691 274.083609 
L 167.579056 274.037734 
L 167.76319 273.926737 
L 167.877126 273.852632 
L 168.130784 273.741634 
L 168.246684 273.667529 
L 168.446955 273.556531 
L 168.562118 273.520281 
L 168.761983 273.409283 
L 168.879946 273.354105 
L 169.029714 273.243108 
L 169.151984 273.136281 
L 169.277201 273.025283 
L 169.389616 272.972351 
L 169.513292 272.861353 
L 169.629889 272.776341 
L 169.783306 272.665343 
L 169.899134 272.572311 
L 170.035223 272.461313 
L 170.169782 272.354165 
L 170.302365 272.243168 
L 170.419755 272.162967 
L 170.546386 272.05197 
L 170.66537 271.92814 
L 170.791655 271.817143 
L 170.913164 271.681444 
L 171.044428 271.570446 
L 171.185305 271.408762 
L 171.345709 271.297764 
L 171.458737 271.220772 
L 171.599948 271.109774 
L 171.722983 271.020591 
L 171.990746 270.909594 
L 172.10998 270.820732 
L 172.230704 270.709734 
L 172.35072 270.594246 
L 172.498755 270.483248 
L 172.611524 270.416842 
L 172.762403 270.305845 
L 172.892437 270.206396 
L 173.045786 270.087058 
L 173.180086 269.97606 
L 173.30024 269.876612 
L 173.466392 269.765614 
L 173.591642 269.658466 
L 173.741226 269.547469 
L 173.86636 269.411769 
L 173.995239 269.300772 
L 174.119189 269.204211 
L 174.222908 269.093213 
L 174.337987 268.988311 
L 174.487484 268.877313 
L 174.603014 268.791018 
L 174.832898 268.68002 
L 174.948914 268.604311 
L 175.093296 268.493313 
L 175.209754 268.410546 
L 175.358709 268.299549 
L 175.481254 268.213895 
L 175.623664 268.102897 
L 175.740345 268.015639 
L 175.907505 267.904642 
L 176.027803 267.803589 
L 176.263443 267.692912 
L 176.378053 267.653774 
L 176.675891 267.542777 
L 176.797345 267.505243 
L 177.063821 267.394246 
L 177.176718 267.322386 
L 177.352701 267.211388 
L 177.472911 267.157815 
L 177.668705 267.047138 
L 177.782553 266.960201 
L 177.928437 266.849203 
L 178.045441 266.757454 
L 178.206363 266.646456 
L 178.33066 266.557273 
L 178.464143 266.446276 
L 178.593468 266.358697 
L 178.790125 266.247699 
L 178.906898 266.213694 
L 179.237342 266.102697 
L 179.372104 266.026025 
L 179.58321 265.915028 
L 179.703838 265.877815 
L 179.951489 265.766817 
L 180.082112 265.67218 
L 180.372808 265.561183 
L 180.501141 265.471679 
L 180.69378 265.360682 
L 180.817268 265.304221 
L 181.055016 265.193223 
L 181.17078 265.121043 
L 181.324807 265.010045 
L 181.439416 264.917975 
L 181.577556 264.806977 
L 181.693213 264.717474 
L 181.849403 264.606476 
L 181.969035 264.513123 
L 182.116242 264.402125 
L 182.238121 264.343739 
L 182.64036 264.232742 
L 182.780201 264.175639 
L 182.97217 264.064642 
L 183.088743 263.97995 
L 183.214435 263.868952 
L 183.332052 263.823398 
L 183.492444 263.712401 
L 183.617446 263.627388 
L 183.78267 263.516391 
L 183.915883 263.458326 
L 184.209977 263.347328 
L 184.330546 263.310436 
L 184.631145 263.199439 
L 184.750499 263.131749 
L 184.918682 263.020752 
L 185.043386 262.928682 
L 185.19517 262.817684 
L 185.313858 262.735238 
L 185.440518 262.624241 
L 185.615848 262.508752 
L 185.754008 262.398075 
L 185.874573 262.301514 
L 186.086969 262.190516 
L 186.215585 262.15619 
L 186.37649 262.045193 
L 186.489849 261.955368 
L 186.623504 261.844371 
L 186.736643 261.763208 
L 186.929226 261.652211 
L 187.056256 261.582917 
L 187.255009 261.47192 
L 187.369798 261.434386 
L 187.56246 261.323388 
L 187.694254 261.213674 
L 187.79961 261.102677 
L 187.924501 260.998416 
L 188.061522 260.887419 
L 188.185154 260.766797 
L 188.32315 260.655799 
L 188.45506 260.535499 
L 188.57143 260.424501 
L 188.681797 260.313183 
L 188.682511 260.313183 
L 188.778035 260.202185 
L 188.900878 260.089263 
L 189.059745 259.978266 
L 189.420124 259.79605 
L 189.771079 259.685053 
L 189.894978 259.626346 
L 190.058007 259.515348 
L 190.172143 259.435148 
L 190.37805 259.32415 
L 190.493827 259.251649 
L 190.642822 259.094135 
L 190.763164 258.983138 
L 190.880697 258.856421 
L 191.026645 258.745424 
L 191.1417 258.668752 
L 191.470276 258.557754 
L 191.589076 258.502256 
L 191.704733 258.391258 
L 191.828879 258.265504 
L 191.955559 258.154506 
L 192.088735 258.014637 
L 192.187606 257.903639 
L 192.311784 257.805153 
L 192.440252 257.694476 
L 192.566828 257.607218 
L 192.67053 257.496221 
L 192.787163 257.387789 
L 192.887643 257.276792 
L 193.00489 257.155529 
L 193.096423 257.044531 
L 193.2159 256.913003 
L 193.327474 256.802005 
L 193.455026 256.689083 
L 193.57236 256.578085 
L 193.700131 256.450727 
L 193.829994 256.339729 
L 193.95267 256.262416 
L 194.094781 256.151419 
L 194.2245 256.044912 
L 194.351419 255.933915 
L 194.472489 255.850827 
L 194.630686 255.73983 
L 194.750104 255.661233 
L 195.001041 255.550236 
L 195.12745 255.505644 
L 195.386688 255.394647 
L 195.520219 255.339148 
L 195.689016 255.22815 
L 195.814565 255.154366 
L 195.937575 255.043689 
L 196.055224 254.951298 
L 196.183035 254.840301 
L 196.302456 254.732832 
L 196.484913 254.621835 
L 196.614959 254.530406 
L 196.727349 254.419409 
L 196.852407 254.300712 
L 197.043771 254.190035 
L 197.161699 254.147368 
L 197.360057 254.036371 
L 197.502038 253.93211 
L 197.660494 253.821113 
L 197.784241 253.713965 
L 197.901058 253.602967 
L 198.022192 253.507048 
L 198.171988 253.39605 
L 198.285079 253.317133 
L 198.42106 253.206135 
L 198.546732 253.107008 
L 198.78389 252.99601 
L 198.902543 252.925434 
L 199.059621 252.814436 
L 199.194574 252.713063 
L 199.323221 252.602065 
L 199.439567 252.533734 
L 199.878936 252.423058 
L 199.995131 252.385524 
L 200.229246 252.274526 
L 200.352878 252.198496 
L 200.519078 252.087499 
L 200.636902 252.013714 
L 200.921069 251.902717 
L 201.035723 251.846897 
L 201.239176 251.7359 
L 201.360259 251.662436 
L 201.512098 251.551439 
L 201.63632 251.471559 
L 201.781901 251.360561 
L 201.897216 251.288381 
L 202.051457 251.177383 
L 202.176396 251.072802 
L 202.403774 250.961805 
L 202.528948 250.896361 
L 202.756223 250.785363 
L 202.880803 250.717353 
L 203.039884 250.606356 
L 203.158665 250.486055 
L 203.394413 250.375058 
L 203.521578 250.331108 
L 203.690172 250.22011 
L 203.810868 250.129003 
L 204.000336 250.018005 
L 204.117993 249.933955 
L 204.277687 249.822957 
L 204.39738 249.741794 
L 204.538882 249.630797 
L 204.660502 249.542897 
L 204.811664 249.4319 
L 204.933548 249.328281 
L 205.096621 249.217283 
L 205.222388 249.135158 
L 205.378239 249.02416 
L 205.500883 248.926957 
L 205.645098 248.81596 
L 205.773857 248.743779 
L 205.924871 248.632782 
L 206.052204 248.548732 
L 206.18446 248.437734 
L 206.305193 248.312622 
L 206.47818 248.201624 
L 206.605907 248.1519 
L 206.819726 248.041223 
L 206.935136 247.927018 
L 207.048447 247.81602 
L 207.170733 247.708872 
L 207.288194 247.597875 
L 207.433401 247.493935 
L 207.555197 247.382937 
L 207.68194 247.286055 
L 207.866213 247.175058 
L 207.996199 247.097103 
L 208.248323 246.986105 
L 208.367087 246.937343 
L 208.687708 246.826346 
L 208.806281 246.765393 
L 209.021052 246.654396 
L 209.136936 246.611729 
L 209.428007 246.500732 
L 209.553415 246.448762 
L 209.740373 246.337764 
L 209.87075 246.278095 
L 210.027242 246.167098 
L 210.167716 246.030115 
L 210.277876 245.919118 
L 210.407069 245.81582 
L 210.548181 245.704822 
L 210.662081 245.631679 
L 210.814255 245.520682 
L 210.961864 245.378887 
L 211.085715 245.26789 
L 211.213697 245.103318 
L 211.346173 244.992321 
L 211.462527 244.911158 
L 211.568679 244.80016 
L 211.681257 244.682105 
L 211.803802 244.532612 
L 211.896287 244.421614 
L 212.008905 244.298105 
L 212.17418 244.187108 
L 212.291419 244.066486 
L 212.398089 243.955489 
L 212.516654 243.894857 
L 212.6998 243.78386 
L 212.81533 243.696922 
L 212.941643 243.585925 
L 213.056627 243.481664 
L 213.209008 243.370667 
L 213.327154 243.260632 
L 213.415182 243.149634 
L 213.533014 243.087078 
L 213.70346 242.97608 
L 213.818508 242.899409 
L 213.966149 242.788411 
L 214.094645 242.689604 
L 214.234884 242.578607 
L 214.375235 242.451569 
L 214.513311 242.340571 
L 214.651017 242.184662 
L 214.834362 242.073664 
L 214.96034 241.981915 
L 215.138857 241.870917 
L 215.254028 241.827609 
L 215.602175 241.716612 
L 215.726811 241.648281 
L 215.881367 241.537283 
L 215.99608 241.442326 
L 216.138849 241.331328 
L 216.258864 241.233484 
L 216.386515 241.122807 
L 216.501977 241.018867 
L 216.627406 240.90787 
L 216.750978 240.814195 
L 217.064651 240.703198 
L 217.186543 240.618185 
L 217.38724 240.507188 
L 217.507617 240.439178 
L 217.64361 240.32818 
L 217.759949 240.262095 
L 217.88333 240.151098 
L 218.258445 239.873925 
L 218.455114 239.762927 
L 218.584797 239.701654 
L 218.739584 239.590657 
L 218.855935 239.509173 
L 218.990474 239.398175 
L 219.116137 239.274025 
L 219.218079 239.163028 
L 219.356454 239.053313 
L 219.459277 238.942316 
L 219.575555 238.887459 
L 219.700123 238.776461 
L 219.812877 238.688561 
L 219.981387 238.577564 
L 220.102123 238.514045 
L 220.405316 238.403048 
L 220.534596 238.338887 
L 220.713161 238.22789 
L 220.842557 238.146727 
L 221.019058 238.035729 
L 221.140213 237.952 
L 221.45916 237.841003 
L 221.576686 237.789353 
L 221.910543 237.678356 
L 222.226718 237.48395 
L 222.373857 237.372952 
L 222.503552 237.266446 
L 222.766017 237.155449 
L 222.882778 237.103799 
L 223.120063 236.992802 
L 223.239784 236.921584 
L 223.519633 236.810586 
L 223.64436 236.752842 
L 224.035031 236.641845 
L 224.154843 236.596291 
L 224.399693 236.485293 
L 224.517864 236.460271 
L 224.864182 236.349273 
L 224.985914 236.29217 
L 225.237405 236.181173 
L 225.362395 236.121825 
L 225.558913 236.010827 
L 225.680442 235.941855 
L 225.95383 235.830857 
L 226.069846 235.778246 
L 226.355778 235.667569 
L 226.478143 235.621694 
L 226.651972 235.510697 
L 226.771596 235.466747 
L 227.034273 235.355749 
L 227.16437 235.297043 
L 227.483505 235.186045 
L 227.613833 235.149474 
L 227.982758 235.038476 
L 228.103398 234.98811 
L 228.379873 234.877113 
L 228.495455 234.829634 
L 228.828898 234.718637 
L 228.945587 234.658005 
L 229.10049 234.603789 
L 229.369006 234.492792 
L 229.502322 234.416762 
L 229.692646 234.305764 
L 229.820536 234.251549 
L 230.025603 234.140551 
L 230.154661 234.067088 
L 230.331218 233.95609 
L 230.449134 233.882306 
L 230.667247 233.771308 
L 230.785011 233.734737 
L 231.189329 233.623739 
L 231.33397 233.569524 
L 231.579226 233.458526 
L 231.693442 233.419709 
L 231.8541 233.345925 
L 232.010035 233.234927 
L 232.124716 233.180391 
L 232.39765 233.069393 
L 232.524787 233.025444 
L 232.818663 232.914446 
L 232.949397 232.864401 
L 233.295472 232.753404 
L 233.429553 232.708812 
L 233.714976 232.597815 
L 233.829541 232.545203 
L 234.038715 232.434206 
L 234.174517 232.342456 
L 234.343629 232.231459 
L 234.463082 232.152862 
L 234.661716 232.041865 
L 234.781257 231.948832 
L 235.050331 231.837835 
L 235.175942 231.780732 
L 235.372166 231.669734 
L 235.489309 231.604612 
L 235.651709 231.493614 
L 235.796425 231.426887 
L 235.98602 231.31589 
L 236.10245 231.259108 
L 236.290655 231.14811 
L 236.407204 231.098707 
L 236.627966 230.98803 
L 236.751447 230.926115 
L 236.969257 230.815118 
L 237.087583 230.756411 
L 237.272247 230.645414 
L 237.391019 230.590556 
L 237.610654 230.479559 
L 237.742544 230.385564 
L 237.908604 230.274566 
L 238.034499 230.173514 
L 238.196695 230.062516 
L 238.314878 229.971409 
L 238.46788 229.860411 
L 238.584055 229.814857 
L 238.793512 229.70386 
L 238.91628 229.64002 
L 239.072186 229.529023 
L 239.186628 229.437915 
L 239.308759 229.326917 
L 239.43349 229.234526 
L 239.552079 229.123529 
L 239.665757 229.017985 
L 239.783314 228.906987 
L 239.903946 228.801764 
L 240.0147 228.690767 
L 240.142515 228.57592 
L 240.253877 228.464922 
L 240.368264 228.377664 
L 240.480981 228.266667 
L 240.59912 228.15599 
L 240.757018 228.044992 
L 240.87683 227.962546 
L 241.024586 227.851549 
L 241.145482 227.758195 
L 241.335567 227.647198 
L 241.451646 227.584642 
L 241.761487 227.473644 
L 241.8849 227.430657 
L 242.166789 227.319659 
L 242.285928 227.268331 
L 242.525504 227.157333 
L 242.655302 227.066867 
L 242.821463 226.95587 
L 242.936008 226.889464 
L 243.067121 226.778466 
L 243.195793 226.678376 
L 243.348425 226.567378 
L 243.477574 226.464401 
L 243.620988 226.353724 
L 243.745429 226.224762 
L 243.865639 226.113764 
L 243.984674 226.011108 
L 244.140481 225.90011 
L 244.262596 225.840762 
L 244.554937 225.729764 
L 244.675016 225.677794 
L 244.949934 225.566797 
L 245.074311 225.515148 
L 245.26052 225.40415 
L 245.383036 225.335499 
L 245.606499 225.224501 
L 245.745731 225.146226 
L 245.971508 225.035228 
L 246.096028 224.933855 
L 246.245211 224.822857 
L 246.369978 224.730145 
L 246.529737 224.619148 
L 246.655301 224.509434 
L 246.827978 224.398436 
L 246.949746 224.32786 
L 247.190146 224.216862 
L 247.312129 224.144682 
L 247.432718 224.033684 
L 247.547682 223.931348 
L 247.722649 223.820351 
L 247.845445 223.721865 
L 247.968165 223.610867 
L 248.087068 223.524571 
L 248.223284 223.413574 
L 248.363169 223.288782 
L 248.472983 223.177784 
L 248.587381 223.090206 
L 248.729401 222.979208 
L 248.85724 222.911519 
L 249.165113 222.800521 
L 249.298616 222.72385 
L 249.525879 222.612852 
L 249.64503 222.571789 
L 249.843855 222.460792 
L 249.969801 222.34787 
L 250.101006 222.236872 
L 250.21603 222.133574 
L 250.327229 222.022576 
L 250.456004 221.930506 
L 250.576051 221.819509 
L 250.698958 221.706266 
L 250.791897 221.595268 
L 250.910685 221.443208 
L 251.009241 221.332211 
L 251.127751 221.185925 
L 251.201792 221.074927 
L 251.319389 220.902657 
L 251.41571 220.79198 
L 251.536574 220.598216 
L 251.609751 220.487218 
L 251.747349 220.300832 
L 251.8201 220.189835 
L 251.938374 219.999599 
L 252.008695 219.888602 
L 252.132554 219.686496 
L 252.198792 219.575499 
L 252.313406 219.434987 
L 252.390622 219.32399 
L 252.51088 219.17995 
L 252.644598 219.068952 
L 252.760705 218.970787 
L 252.879283 218.917213 
L 253.04114 218.806216 
L 253.161036 218.66795 
L 253.24649 218.556952 
L 253.366473 218.417404 
L 253.459516 218.306406 
L 253.580276 218.154346 
L 253.690137 218.043348 
L 253.818398 217.876211 
L 253.904553 217.765213 
L 254.029094 217.588772 
L 254.112827 217.477774 
L 254.227815 217.322506 
L 254.309664 217.21183 
L 254.422728 217.054316 
L 254.553518 216.943318 
L 254.687328 216.798957 
L 254.784144 216.68796 
L 254.906354 216.542957 
L 255.062893 216.43196 
L 255.19889 216.317434 
L 255.392305 216.206436 
L 255.521327 216.155749 
L 255.707321 216.044752 
L 255.828436 215.996632 
L 256.11038 215.885955 
L 256.23022 215.829494 
L 256.441904 215.718496 
L 256.55764 215.670055 
L 256.776032 215.559058 
L 256.915053 215.446456 
L 257.052966 215.335459 
L 257.179338 215.219008 
L 257.380043 215.10801 
L 257.513539 214.997975 
L 257.612102 214.886977 
L 257.731385 214.758336 
L 257.827873 214.647338 
L 257.942765 214.544682 
L 258.074464 214.433684 
L 258.336894 214.191799 
L 258.46627 214.080802 
L 258.579692 213.989053 
L 258.75762 213.878055 
L 258.876826 213.811328 
L 259.008596 213.700331 
L 259.136411 213.572652 
L 259.252104 213.461654 
L 259.367941 213.369263 
L 259.488924 213.258266 
L 259.610779 213.117434 
L 259.719863 213.006436 
L 259.836421 212.899288 
L 259.962969 212.788291 
L 260.100671 212.638797 
L 260.191491 212.527799 
L 260.309801 212.449524 
L 260.419785 212.338526 
L 260.542884 212.223358 
L 260.648275 212.112361 
L 260.759156 211.961584 
L 260.759379 211.961584 
L 260.882274 211.850907 
L 260.882274 211.850586 
L 260.997458 211.742476 
L 261.176628 211.631479 
L 261.295336 211.533313 
L 261.479366 211.422316 
L 261.59588 211.31613 
L 261.706311 211.205133 
L 261.83009 211.109534 
L 261.965673 210.998536 
L 262.081772 210.900692 
L 262.22337 210.789694 
L 262.347006 210.669073 
L 262.484867 210.558396 
L 262.613012 210.42783 
L 262.737955 210.316832 
L 262.855624 210.187549 
L 262.986833 210.076551 
L 263.107079 209.97614 
L 263.240821 209.865143 
L 263.369883 209.791679 
L 263.561828 209.680682 
L 263.704987 209.549474 
L 263.808726 209.438476 
L 263.93701 209.3201 
L 264.044382 209.209103 
L 264.158481 209.130827 
L 264.325872 209.01983 
L 264.450126 208.920702 
L 264.615728 208.809704 
L 264.734704 208.723729 
L 264.863558 208.612732 
L 264.977602 208.535739 
L 265.223671 208.424742 
L 265.356031 208.320802 
L 265.488276 208.209805 
L 265.607183 208.109073 
L 265.76738 207.998075 
L 265.881902 207.907609 
L 266.043238 207.796612 
L 266.160138 207.722827 
L 266.330958 207.61183 
L 266.466139 207.533554 
L 266.816177 207.422556 
L 266.932321 207.358717 
L 267.109152 207.247719 
L 267.223427 207.164632 
L 267.347693 207.053634 
L 267.466501 206.933013 
L 267.590946 206.822015 
L 267.714203 206.705243 
L 267.818336 206.594246 
L 267.930966 206.471699 
L 268.02706 206.360702 
L 268.143247 206.260932 
L 268.256681 206.150256 
L 268.370673 206.057544 
L 268.495305 205.946546 
L 268.610078 205.849985 
L 268.736048 205.738987 
L 268.855649 205.605534 
L 268.940446 205.494536 
L 269.065421 205.400541 
L 269.2482 205.289544 
L 269.373684 205.232762 
L 269.670256 205.121764 
L 269.784858 205.068832 
L 270.033632 204.957835 
L 270.158084 204.876351 
L 270.367712 204.765353 
L 270.495463 204.702797 
L 270.671574 204.591799 
L 270.790351 204.492992 
L 271.088086 204.381995 
L 271.221517 204.30019 
L 271.416948 204.189193 
L 271.541377 204.099048 
L 271.792872 203.98805 
L 271.937971 203.95982 
L 272.242721 203.848822 
L 272.36372 203.754506 
L 272.551256 203.643509 
L 272.676007 203.551118 
L 272.793473 203.44012 
L 272.913958 203.350296 
L 273.153582 203.239298 
L 273.266634 203.161985 
L 273.379948 203.051308 
L 273.497446 202.95186 
L 273.641513 202.840862 
L 273.760094 202.759699 
L 273.883758 202.648702 
L 274.007717 202.561764 
L 274.154091 202.450767 
L 274.274943 202.357734 
L 274.455623 202.246737 
L 274.578199 202.195409 
L 274.737344 202.084732 
L 274.853483 202.007098 
L 274.986975 201.8961 
L 275.108671 201.758155 
L 275.194977 201.647158 
L 275.310184 201.483549 
L 275.414086 201.372551 
L 275.530707 201.287218 
L 275.708615 201.176221 
L 275.832414 201.068752 
L 275.984704 200.957754 
L 276.101181 200.889424 
L 276.317557 200.778426 
L 276.44068 200.705604 
L 276.694039 200.594607 
L 276.821594 200.468852 
L 276.987312 200.357855 
L 277.112856 200.268992 
L 277.2763 200.157995 
L 277.392742 200.090306 
L 277.613348 199.979629 
L 277.729272 199.918997 
L 277.895831 199.808 
L 278.020092 199.696361 
L 278.178851 199.585363 
L 278.29687 199.477253 
L 278.458788 199.366256 
L 278.587029 199.248201 
L 278.71241 199.137203 
L 278.828927 199.053474 
L 278.946102 198.942476 
L 279.066488 198.854576 
L 279.18853 198.789133 
L 279.441618 198.678135 
L 279.566908 198.590877 
L 279.710473 198.47988 
L 279.832835 198.39615 
L 279.979722 198.285153 
L 280.108445 198.200782 
L 280.290974 198.089784 
L 280.410881 198.006697 
L 280.602791 197.895699 
L 280.725949 197.845975 
L 280.917671 197.734977 
L 281.03387 197.633925 
L 281.215283 197.522927 
L 281.353936 197.385303 
L 281.471693 197.274306 
L 281.596381 197.142777 
L 281.712404 197.0321 
L 281.829734 196.923348 
L 281.933094 196.812351 
L 282.060547 196.71996 
L 282.227699 196.608962 
L 282.344686 196.546085 
L 282.529844 196.435088 
L 282.651607 196.36387 
L 282.807231 196.252872 
L 282.953888 196.164972 
L 283.08514 196.053975 
L 283.205076 195.980832 
L 283.448839 195.869835 
L 283.574036 195.798296 
L 283.813553 195.687298 
L 283.930409 195.625704 
L 284.099437 195.514707 
L 284.212823 195.42392 
L 284.379262 195.312922 
L 284.499226 195.229193 
L 284.695377 195.118195 
L 284.82077 195.020992 
L 284.952975 194.909995 
L 285.074173 194.813754 
L 285.280973 194.702757 
L 285.399072 194.659128 
L 285.554879 194.54813 
L 285.670125 194.466967 
L 285.850558 194.35597 
L 285.975413 194.25203 
L 286.07563 194.141033 
L 286.197864 193.995709 
L 286.33138 193.884712 
L 286.466831 193.742596 
L 286.639966 193.631599 
L 286.759587 193.551078 
L 286.912298 193.44008 
L 287.03899 193.343519 
L 287.177448 193.232521 
L 287.302861 193.110617 
L 287.416993 192.999619 
L 287.537812 192.892471 
L 287.649637 192.781474 
L 287.766637 192.665664 
L 287.89638 192.554667 
L 288.020904 192.492752 
L 288.211953 192.381754 
L 288.352702 192.282306 
L 288.505183 192.171308 
L 288.627003 192.052612 
L 288.73725 191.941614 
L 288.856612 191.873925 
L 288.965079 191.762927 
L 289.091969 191.609263 
L 289.186944 191.498266 
L 289.301725 191.351659 
L 289.393628 191.240662 
L 289.516392 191.088281 
L 289.625158 190.977283 
L 289.758856 190.833885 
L 289.856181 190.722887 
L 289.972767 190.577564 
L 290.048346 190.466566 
L 290.164584 190.330546 
L 290.295988 190.189393 
L 290.408379 190.078396 
L 290.566755 189.920241 
L 290.655603 189.809243 
L 290.773005 189.685093 
L 290.898645 189.585965 
L 290.982872 189.474967 
L 291.095183 189.372632 
L 291.206216 189.261634 
L 291.324828 189.165073 
L 291.486451 189.054075 
L 291.601351 188.953985 
L 291.723163 188.842987 
L 291.845397 188.804812 
L 292.03704 188.694135 
L 292.163038 188.567098 
L 292.294119 188.4561 
L 292.415174 188.361464 
L 292.526597 188.250466 
L 292.647564 188.141393 
L 292.793348 188.030396 
L 292.909766 187.948271 
L 293.032028 187.837273 
L 293.152573 187.714727 
L 293.3005 187.60405 
L 293.416392 187.517754 
L 293.725485 187.406757 
L 293.848778 187.360561 
L 294.026936 187.249564 
L 294.142068 187.197594 
L 294.43131 187.086596 
L 294.553233 187.006075 
L 294.716473 186.895078 
L 294.861138 186.812952 
L 295.104061 186.701955 
L 295.222152 186.636832 
L 295.410942 186.525835 
L 295.543955 186.409383 
L 295.727687 186.298386 
L 295.840344 186.237113 
L 296.081968 186.126115 
L 296.202301 186.065805 
L 296.391506 185.954807 
L 296.508912 185.920481 
L 296.843686 185.809484 
L 296.970553 185.759118 
L 297.322587 185.64812 
L 297.450306 185.580752 
L 297.621736 185.469754 
L 297.736167 185.405594 
L 297.941377 185.294596 
L 298.060265 185.226586 
L 298.202277 185.115589 
L 298.360976 184.985664 
L 298.499849 184.874667 
L 298.614438 184.806977 
L 298.843338 184.69598 
L 298.962362 184.638877 
L 299.097454 184.555789 
L 299.34626 184.444792 
L 299.474214 184.381594 
L 299.614227 184.270596 
L 299.730398 184.182697 
L 299.855866 184.071699 
L 299.976447 183.947549 
L 300.139189 183.836551 
L 300.260594 183.760521 
L 300.417066 183.649524 
L 300.532855 183.590496 
L 300.726684 183.479499 
L 300.846508 183.3839 
L 300.963153 183.272902 
L 301.09004 183.137845 
L 301.196587 183.026847 
L 301.3152 182.909434 
L 301.468366 182.798436 
L 301.586504 182.659529 
L 301.66537 182.548531 
L 301.784756 182.384602 
L 301.898584 182.273604 
L 302.016476 182.139509 
L 302.178087 182.028511 
L 302.316657 181.852391 
L 302.392037 181.741393 
L 302.513299 181.609223 
L 302.625435 181.498546 
L 302.743542 181.376 
L 302.865959 181.265003 
L 302.979915 181.151439 
L 303.072496 181.040441 
L 303.203776 180.924311 
L 303.350266 180.813313 
L 303.46525 180.737604 
L 303.689342 180.626607 
L 303.824789 180.505985 
L 303.93706 180.394987 
L 304.055314 180.253514 
L 304.14903 180.142516 
L 304.272666 179.978266 
L 304.366402 179.867268 
L 304.492564 179.669333 
L 304.570119 179.558336 
L 304.691217 179.359759 
L 304.769621 179.248762 
L 304.886361 179.099268 
L 304.99915 178.988271 
L 305.116058 178.935338 
L 305.294006 178.824341 
L 305.414654 178.673885 
L 305.512824 178.562887 
L 305.634002 178.403769 
L 305.713166 178.292772 
L 305.845598 178.179529 
L 306.042252 178.068531 
L 306.160287 178.012712 
L 306.303315 177.901714 
L 306.424481 177.770827 
L 306.539636 177.65983 
L 306.661077 177.454516 
L 306.730729 177.343519 
L 306.849103 177.150396 
L 306.943261 177.039398 
L 307.067698 176.84788 
L 307.136971 176.736882 
L 307.257755 176.479278 
L 307.309465 176.368281 
L 307.429779 176.123188 
L 307.493499 176.01219 
L 307.606814 175.834787 
L 307.66714 175.723789 
L 307.786239 175.565313 
L 307.908062 175.454316 
L 308.040685 175.34011 
L 308.127314 175.229113 
L 308.241298 174.997173 
L 308.39117 174.691769 
L 308.448297 174.580772 
L 308.575403 174.370005 
L 308.630718 174.259008 
L 308.746969 173.983439 
L 308.793197 173.872441 
L 308.939456 173.644672 
L 308.985206 173.533674 
L 309.120546 173.259709 
L 309.177897 173.148712 
L 309.294502 172.928642 
L 309.343626 172.817644 
L 309.462665 172.606877 
L 309.530576 172.49588 
L 309.645488 172.343499 
L 309.708241 172.232501 
L 309.82487 172.009865 
L 309.889773 171.898867 
L 310.017683 171.631639 
L 310.098887 171.520642 
L 310.221213 171.297363 
L 310.279997 171.186366 
L 310.40257 170.957313 
L 310.501448 170.846316 
L 310.625065 170.707088 
L 310.687777 170.59609 
L 310.805617 170.490867 
L 311.016819 170.37987 
L 311.132022 170.271759 
L 311.202024 170.160762 
L 311.316175 169.997474 
L 311.436616 169.886476 
L 311.555512 169.732491 
L 311.64789 169.621494 
L 311.765475 169.538727 
L 311.928412 169.427729 
L 312.044017 169.247118 
L 312.112287 169.13612 
L 312.226833 168.998496 
L 312.301607 168.887499 
L 312.41634 168.742496 
L 312.482538 168.631499 
L 312.605652 168.392501 
L 312.733483 168.281825 
L 312.851442 168.126556 
L 312.914298 168.015559 
L 313.033102 167.915148 
L 313.186766 167.80415 
L 313.297049 167.672301 
L 313.297874 167.672301 
L 313.413997 167.53981 
L 313.539924 167.373955 
L 313.633464 167.263278 
L 313.758323 167.045133 
L 313.847466 166.934135 
L 313.972971 166.705724 
L 314.042001 166.594727 
L 314.15771 166.410907 
L 314.237886 166.29991 
L 314.359666 166.08786 
L 314.437412 165.976862 
L 314.550316 165.83186 
L 314.700228 165.720862 
L 314.817514 165.66408 
L 314.979117 165.553083 
L 315.107151 165.407759 
L 315.204265 165.296762 
L 315.327184 165.142135 
L 315.410507 165.031138 
L 315.986111 164.282386 
L 316.084639 164.171388 
L 316.201229 164.026386 
L 316.315527 163.915388 
L 316.443342 163.787709 
L 316.545185 163.676712 
L 316.668984 163.569243 
L 316.841557 163.458246 
L 316.970902 163.416221 
L 317.224607 163.305223 
L 317.345053 163.202566 
L 317.469227 163.091569 
L 317.587218 163.017143 
L 317.724334 162.906145 
L 317.846497 162.832682 
L 318.022372 162.721684 
L 318.160357 162.643088 
L 318.323569 162.53209 
L 318.437804 162.405373 
L 318.531102 162.294376 
L 318.644931 162.185945 
L 318.741124 162.074947 
L 318.853141 162.001163 
L 319.099461 161.890165 
L 319.212827 161.800341 
L 319.29286 161.689343 
L 319.406179 161.511619 
L 319.478328 161.400622 
L 319.593364 161.243749 
L 319.659677 161.132752 
L 319.778904 160.971709 
L 319.86674 160.860712 
L 319.984074 160.695499 
L 320.066772 160.584501 
L 320.197455 160.514246 
L 320.359492 160.403248 
L 320.472213 160.272682 
L 320.542972 160.161684 
L 320.660947 159.979469 
L 320.725409 159.868471 
L 320.851016 159.706466 
L 320.931276 159.595469 
L 321.045165 159.370907 
L 321.111677 159.25991 
L 321.227426 159.074486 
L 321.296265 158.96381 
L 321.296265 158.963489 
L 321.418395 158.744381 
L 321.470926 158.633383 
L 321.585639 158.343378 
L 321.652016 158.232381 
L 321.767219 157.903238 
L 321.802103 157.792241 
L 321.919871 157.525013 
L 321.957304 157.414015 
L 322.072698 157.068511 
L 322.125703 156.957514 
L 322.256226 156.568702 
L 322.293353 156.457704 
L 322.410161 155.998957 
L 322.439352 155.88796 
L 322.562235 155.414777 
L 322.592327 155.303779 
L 322.71656 154.776702 
L 322.746895 154.665704 
L 322.862496 154.304481 
L 322.890803 154.193484 
L 323.001883 153.874607 
L 323.001907 153.874607 
L 323.034002 153.763609 
L 323.145098 153.472962 
L 323.145102 153.472962 
L 323.172556 153.361965 
L 323.283648 153.001383 
L 323.28366 153.001383 
L 323.41514 152.456341 
L 323.479824 152.345343 
L 323.625748 151.646957 
L 323.648446 151.53596 
L 323.767186 150.921303 
L 323.806491 150.810306 
L 323.959112 149.977183 
L 323.977762 149.866185 
L 324.095467 149.335579 
L 324.116376 149.224902 
L 324.116376 149.224581 
L 324.259838 148.358095 
L 324.278489 148.247098 
L 324.389462 147.592662 
L 324.389597 147.592662 
L 324.414948 147.481985 
L 324.525885 147.071679 
L 324.526052 147.071679 
L 324.549503 146.960682 
L 324.660372 146.500652 
L 324.660587 146.500652 
L 324.67572 146.389654 
L 324.79703 145.568401 
L 324.811032 145.457404 
L 324.921602 144.955028 
L 324.922128 144.955028 
L 324.940436 144.84403 
L 325.051513 144.286476 
L 325.051544 144.286476 
L 325.074458 144.175479 
L 325.195417 143.382777 
L 325.212661 143.271779 
L 325.323745 142.667709 
L 325.323757 142.667709 
L 325.341834 142.556712 
L 325.452851 142.187469 
L 325.452934 142.187469 
L 325.476959 142.076471 
L 325.588055 141.274787 
L 325.588067 141.274787 
L 325.603053 141.163789 
L 325.714061 140.609444 
L 325.714149 140.609444 
L 325.749391 140.498446 
L 325.86786 139.905925 
L 325.883245 139.794927 
L 325.99411 138.997734 
L 325.994345 138.997734 
L 326.01137 138.886737 
L 326.130959 138.20407 
L 326.171603 138.093073 
L 326.282643 137.54001 
L 326.282703 137.54001 
L 326.301358 137.429013 
L 326.416421 137.110135 
L 326.457941 136.999138 
L 326.575208 136.503499 
L 326.610625 136.392501 
L 326.721657 135.941454 
L 326.721733 135.941454 
L 326.760417 135.830456 
L 326.874732 135.572531 
L 326.913591 135.461534 
L 327.034303 134.684231 
L 327.07936 134.573554 
L 327.190273 133.786627 
L 327.190468 133.786627 
L 327.276699 133.675629 
L 327.402463 133.284251 
L 327.425587 133.173253 
L 327.543495 132.625965 
L 327.58094 132.514967 
L 327.697059 132.11204 
L 327.739754 132.001043 
L 327.856917 131.513744 
L 327.883363 131.402747 
L 327.994467 131.025163 
L 328.037943 130.914165 
L 328.153473 130.558396 
L 328.180692 130.447398 
L 328.291553 130.071739 
L 328.291788 130.071739 
L 328.36534 129.960742 
L 328.49823 129.378165 
L 328.527018 129.267168 
L 328.637521 128.767358 
L 328.638126 128.767358 
L 328.673695 128.656361 
L 328.787635 128.428912 
L 328.83276 128.317915 
L 328.94594 128.151739 
L 329.02569 128.040742 
L 329.141339 127.920762 
L 329.21352 127.809764 
L 329.327986 127.744642 
L 329.666692 127.633644 
L 329.782655 127.558897 
L 329.917995 127.4479 
L 330.034552 127.363529 
L 330.116509 127.252531 
L 330.231493 127.097584 
L 330.506092 126.986586 
L 330.624056 126.931409 
L 330.733467 126.820411 
L 330.847475 126.70396 
L 330.929113 126.592962 
L 331.040073 126.418446 
L 331.040217 126.418446 
L 331.157981 126.307449 
L 331.275694 126.177203 
L 331.383527 126.066206 
L 331.501742 125.955208 
L 331.622004 125.879499 
L 331.736151 125.768501 
L 331.852685 125.661995 
L 331.927447 125.550997 
L 332.042917 125.43583 
L 332.177671 125.324832 
L 332.29103 125.235328 
L 332.471216 125.124331 
L 332.586231 125.04798 
L 332.906183 124.936982 
L 333.020589 124.850045 
L 333.182196 124.739048 
L 333.29765 124.624521 
L 333.450457 124.513524 
L 333.566234 124.390336 
L 333.708238 124.279338 
L 333.821445 124.224802 
L 333.978192 124.113805 
L 334.088475 124.086536 
L 334.089212 124.086536 
L 334.700171 123.975539 
L 334.81578 123.941213 
L 335.202455 123.830216 
L 335.314917 123.776962 
L 335.525043 123.665965 
L 335.637709 123.604371 
L 335.77304 123.493373 
L 335.886722 123.390717 
L 336.002622 123.279719 
L 336.119132 123.222296 
L 336.290972 123.111298 
L 336.413094 123.038155 
L 336.569037 122.927158 
L 336.681156 122.845033 
L 337.059813 122.734035 
L 337.174518 122.662817 
L 337.376151 122.55182 
L 337.490111 122.496962 
L 337.674121 122.385965 
L 337.789898 122.262777 
L 337.971131 122.151779 
L 338.086474 122.04014 
L 338.214751 121.929143 
L 338.331575 121.816862 
L 338.574633 121.705865 
L 338.689517 121.682125 
L 338.908841 121.571128 
L 339.022351 121.50793 
L 339.198123 121.396932 
L 339.311693 121.350095 
L 339.644463 121.239098 
L 339.762785 121.180712 
L 339.929905 121.069714 
L 340.042929 120.915729 
L 340.124292 120.804732 
L 340.239503 120.696622 
L 340.353734 120.585624 
L 340.482852 120.522105 
L 340.62829 120.411108 
L 340.740891 120.291449 
L 340.870327 120.180451 
L 340.983917 120.081965 
L 341.095842 119.970967 
L 341.208639 119.904241 
L 341.354152 119.793243 
L 341.471164 119.701494 
L 341.793274 119.590496 
L 341.909039 119.518957 
L 342.103589 119.40796 
L 342.225947 119.30017 
L 342.328394 119.189173 
L 342.441227 119.050907 
L 342.537512 118.93991 
L 342.64962 118.859388 
L 342.899235 118.748391 
L 343.015768 118.698987 
L 343.201671 118.58799 
L 343.316372 118.518376 
L 343.434355 118.407378 
L 343.549395 118.331028 
L 343.703895 118.22003 
L 343.818843 118.145283 
L 343.952211 118.034286 
L 344.068972 117.962426 
L 344.449229 117.851429 
L 344.567834 117.827368 
L 345.387803 117.716371 
L 345.502046 117.693594 
L 345.899198 117.582596 
L 346.011576 117.532231 
L 346.220009 117.421233 
L 346.332758 117.354185 
L 346.587587 117.243188 
L 346.707913 117.15593 
L 346.798733 117.044932 
L 346.910857 116.963769 
L 346.983954 116.852772 
L 347.10128 116.687559 
L 347.207285 116.576561 
L 347.322309 116.473584 
L 347.500627 116.362586 
L 347.613273 116.321845 
L 347.929886 116.210847 
L 348.047957 116.112682 
L 348.144178 116.001684 
L 348.257023 115.862456 
L 348.383591 115.751459 
L 348.503021 115.530105 
L 348.556388 115.419108 
L 348.667097 115.206095 
L 348.667488 115.206095 
L 348.717174 115.095098 
L 348.832783 114.915128 
L 348.907442 114.80413 
L 349.020864 114.615499 
L 349.136434 114.504501 
L 349.250024 114.304 
L 349.292165 114.193003 
L 349.416781 113.832421 
L 349.481402 113.721424 
L 349.59913 113.45612 
L 349.631644 113.345123 
L 349.742401 113.05608 
L 349.742752 113.05608 
L 349.847406 112.945083 
L 349.958458 112.732712 
L 349.958506 112.732712 
L 350.028943 112.621714 
L 350.14491 112.230657 
L 350.213853 112.119659 
L 350.336872 111.802065 
L 350.383901 111.691388 
L 350.499745 111.309634 
L 350.530243 111.198637 
L 350.650517 110.830997 
L 350.690424 110.72 
L 350.806945 110.284672 
L 350.858225 110.173674 
L 350.974253 109.777484 
L 351.004945 109.666486 
L 351.116041 109.389313 
L 351.116053 109.389313 
L 351.175631 109.278316 
L 351.292128 109.062737 
L 351.327876 108.951739 
L 351.451971 108.604952 
L 351.480771 108.493955 
L 351.601515 108.107068 
L 351.642203 107.99607 
L 351.75739 107.668211 
L 351.788342 107.557213 
L 351.905361 107.081143 
L 351.931055 106.970145 
L 352.047417 106.547008 
L 352.076823 106.43601 
L 352.196364 106.097885 
L 352.235925 105.986887 
L 352.348789 105.704261 
L 352.408124 105.593263 
L 352.523773 105.22819 
L 352.561122 105.117193 
L 352.678209 104.877233 
L 352.724542 104.766236 
L 352.838884 104.506065 
L 352.881854 104.395068 
L 353.003722 104.108271 
L 353.040513 103.997273 
L 353.151454 103.662997 
L 353.151617 103.662997 
L 353.205773 103.552 
L 353.325896 103.190456 
L 353.361385 103.079779 
L 353.361385 103.079459 
L 353.478966 102.820251 
L 353.518928 102.709253 
L 353.629718 102.509073 
L 353.630032 102.509073 
L 353.688478 102.398396 
L 353.688478 102.398075 
L 353.802032 102.20014 
L 353.886722 102.089143 
L 354.018874 101.851749 
L 354.095051 101.740752 
L 354.210091 101.637133 
L 354.434016 101.526135 
L 354.548593 101.473203 
L 354.681686 101.362206 
L 354.800498 101.209825 
L 354.902595 101.098827 
L 355.022682 100.920782 
L 355.174406 100.809784 
L 355.28888 100.675048 
L 355.410947 100.56405 
L 355.524469 100.528441 
L 355.772271 100.417444 
L 355.889712 100.318637 
L 356.010699 100.207639 
L 356.126285 100.088942 
L 356.246957 99.977945 
L 356.364809 99.798937 
L 356.467779 99.688261 
L 356.581484 99.549674 
L 356.687525 99.438677 
L 356.802903 99.26801 
L 356.873989 99.157013 
L 356.989025 99.00014 
L 357.125966 98.889143 
L 357.246694 98.783278 
L 357.375166 98.672281 
L 357.502068 98.56417 
L 357.708211 98.453494 
L 357.822466 98.392541 
L 358.203257 98.281544 
L 358.323356 98.239198 
L 358.651445 98.128201 
L 358.7688 98.061153 
L 358.92565 97.950155 
L 359.057612 97.862897 
L 359.448091 97.7519 
L 359.576595 97.661434 
L 359.705537 97.550436 
L 359.819756 97.466707 
L 359.949774 97.355709 
L 360.068677 97.254977 
L 360.19901 97.14398 
L 360.313006 97.066025 
L 360.436861 96.955028 
L 360.551901 96.877073 
L 360.938608 96.766075 
L 361.052365 96.696461 
L 361.243322 96.585464 
L 361.363552 96.485053 
L 361.518108 96.374055 
L 361.639131 96.279739 
L 361.832375 96.168742 
L 361.949546 96.091429 
L 362.232462 95.980431 
L 362.355708 95.92012 
L 362.481914 95.809123 
L 362.597774 95.71609 
L 362.732118 95.605093 
L 362.846082 95.530346 
L 362.951027 95.419348 
L 363.098724 95.285574 
L 363.216452 95.174576 
L 363.337427 95.018987 
L 363.474568 94.90799 
L 363.587926 94.811429 
L 364.323361 94.267669 
L 364.647459 94.156672 
L 364.767857 94.088662 
L 364.90291 93.977664 
L 365.018885 93.902596 
L 365.17615 93.791599 
L 365.298101 93.68798 
L 365.462469 93.576982 
L 365.575951 93.542015 
L 365.84804 93.431018 
L 365.960921 93.384501 
L 366.133837 93.273504 
L 366.256899 93.158657 
L 366.402612 93.047659 
L 366.514616 92.974516 
L 366.676267 92.863519 
L 366.795473 92.787168 
L 366.970258 92.67617 
L 367.08699 92.646336 
L 367.393203 92.535338 
L 367.512728 92.466045 
L 367.73545 92.355048 
L 367.850115 92.285434 
L 368.221907 92.174436 
L 368.340612 92.1199 
L 368.529836 92.008902 
L 368.646219 91.952762 
L 368.851027 91.841764 
L 368.966692 91.784341 
L 369.294865 91.673343 
L 369.409944 91.59603 
L 369.577443 91.485033 
L 369.694187 91.374356 
L 369.798798 91.263358 
L 369.914037 91.153965 
L 370.069147 91.042967 
L 370.194396 90.982657 
L 370.332285 90.871659 
L 370.446951 90.802687 
L 370.63126 90.691689 
L 370.746072 90.593524 
L 370.928417 90.482526 
L 371.047799 90.39206 
L 371.273528 90.281063 
L 371.399307 90.227489 
L 371.560257 90.116491 
L 371.673297 90.064842 
L 371.876866 89.953845 
L 371.990974 89.923689 
L 372.252937 89.812692 
L 372.368515 89.74404 
L 372.54345 89.633043 
L 372.66031 89.543539 
L 372.787026 89.432541 
L 372.902484 89.347208 
L 373.026363 89.236211 
L 373.148983 89.125855 
L 373.30195 89.014857 
L 373.421184 88.909634 
L 373.559842 88.798637 
L 373.678578 88.727098 
L 374.059039 88.6161 
L 374.183412 88.594607 
L 374.540055 88.483609 
L 374.655784 88.434847 
L 374.915565 88.32385 
L 375.035404 88.267388 
L 375.361084 88.156391 
L 375.483011 88.09191 
L 375.673606 87.980912 
L 375.790108 87.93183 
L 375.972994 87.820832 
L 376.0867 87.770466 
L 376.322276 87.659469 
L 376.438802 87.617123 
L 376.716396 87.506125 
L 376.833918 87.466667 
L 377.110122 87.355669 
L 377.22715 87.327759 
L 377.575141 87.216762 
L 377.697319 87.191098 
L 378.062977 87.0801 
L 378.176949 87.036471 
L 378.446138 86.925474 
L 378.564867 86.854256 
L 378.765867 86.743258 
L 378.885491 86.688401 
L 379.272421 86.577404 
L 379.388377 86.544361 
L 379.739061 86.433363 
L 379.855411 86.385885 
L 380.087112 86.274887 
L 380.206426 86.227729 
L 380.423718 86.116732 
L 380.535607 86.075669 
L 380.755345 85.964672 
L 380.874986 85.924571 
L 381.481076 85.813574 
L 381.609445 85.768662 
L 381.956368 85.657664 
L 382.073296 85.611789 
L 382.475089 85.500792 
L 382.59018 85.465825 
L 382.838476 85.354827 
L 382.955416 85.301574 
L 383.173684 85.190576 
L 383.288676 85.142135 
L 383.62837 85.031138 
L 383.742497 84.985905 
L 384.056154 84.874907 
L 384.177293 84.826466 
L 384.41604 84.715469 
L 384.535298 84.673764 
L 385.021159 84.562767 
L 385.133733 84.535499 
L 385.527705 84.424501 
L 385.657843 84.393383 
L 385.949515 84.282386 
L 386.065622 84.249023 
L 386.353952 84.138025 
L 386.471466 84.103058 
L 387.111834 83.99206 
L 387.226743 83.952922 
L 387.517734 83.841925 
L 387.642039 83.768782 
L 387.869876 83.657784 
L 387.988481 83.604211 
L 388.451766 83.493213 
L 388.579916 83.445734 
L 388.796021 83.334737 
L 388.922039 83.270576 
L 389.144841 83.159579 
L 389.258478 83.08419 
L 389.447249 82.973193 
L 389.568128 82.901013 
L 389.774864 82.790015 
L 389.894648 82.726496 
L 390.181656 82.615499 
L 390.30473 82.577644 
L 390.57188 82.466647 
L 390.695249 82.392541 
L 390.948513 82.281544 
L 391.063226 82.226687 
L 391.242539 82.115689 
L 391.359818 82.049283 
L 391.511836 81.938286 
L 391.625319 81.892732 
L 391.94233 81.781734 
L 392.060015 81.710837 
L 392.232417 81.59984 
L 392.349906 81.540491 
L 392.593458 81.429494 
L 392.722125 81.363088 
L 392.928411 81.25209 
L 393.045132 81.213594 
L 393.369039 81.102596 
L 393.48703 81.02817 
L 393.657034 80.917173 
L 393.778169 80.821574 
L 393.966182 80.710576 
L 394.08278 80.640642 
L 394.322435 80.529644 
L 394.43718 80.498526 
L 394.786916 80.387529 
L 394.903015 80.310536 
L 395.094841 80.199539 
L 395.207542 80.130246 
L 395.453496 80.019248 
L 395.567165 79.980752 
L 396.133867 79.869754 
L 396.252966 79.804311 
L 396.419154 79.693313 
L 396.542157 79.613754 
L 396.732014 79.502757 
L 396.853547 79.425444 
L 397.009462 79.314446 
L 397.122486 79.238416 
L 397.295306 79.127419 
L 397.410696 79.073203 
L 397.80073 78.962206 
L 397.917191 78.937825 
L 398.235979 78.826827 
L 398.352007 78.788972 
L 398.604159 78.677975 
L 398.724345 78.602907 
L 398.90628 78.49191 
L 399.022614 78.410747 
L 399.17974 78.299749 
L 399.295473 78.208962 
L 399.452016 78.097965 
L 399.570394 78.002687 
L 399.720513 77.891689 
L 399.849076 77.855118 
L 400.013308 77.74412 
L 400.132017 77.661353 
L 400.356551 77.550356 
L 400.47085 77.488762 
L 400.765367 77.377764 
L 400.886385 77.294997 
L 401.025856 77.184 
L 401.142214 77.081023 
L 401.281729 76.970025 
L 401.405066 76.887579 
L 401.568888 76.776581 
L 401.686995 76.72012 
L 401.995023 76.609123 
L 402.112019 76.534055 
L 402.366378 76.423058 
L 402.488671 76.329063 
L 402.627118 76.218065 
L 402.745476 76.139469 
L 402.899777 76.028471 
L 403.013825 75.984201 
L 403.368285 75.873203 
L 403.483863 75.804551 
L 403.709759 75.693554 
L 403.824815 75.659228 
L 404.105724 75.548231 
L 404.221963 75.483108 
L 404.429304 75.37211 
L 404.546308 75.347729 
L 404.757577 75.236732 
L 404.87223 75.167759 
L 405.007968 75.056762 
L 405.126537 74.960521 
L 405.241107 74.849524 
L 405.355836 74.704842 
L 405.482918 74.593845 
L 405.600332 74.513323 
L 405.715614 74.402326 
L 405.831622 74.306406 
L 405.994456 74.195409 
L 406.110619 74.165895 
L 406.329755 74.054897 
L 406.443708 73.980471 
L 406.697804 73.869474 
L 406.815839 73.838997 
L 406.942749 73.816541 
L 407.292704 73.705544 
L 407.412795 73.631118 
L 407.557859 73.52012 
L 407.677117 73.414897 
L 407.795821 73.3039 
L 407.915215 73.196752 
L 408.06092 73.085754 
L 408.175669 72.990155 
L 408.409393 72.879158 
L 408.52415 72.841945 
L 408.646041 72.777784 
L 408.75346 72.667108 
L 408.866476 72.591719 
L 408.996717 72.480722 
L 409.113195 72.375178 
L 409.225231 72.26418 
L 409.337426 72.174356 
L 409.588065 72.063358 
L 409.710275 72.022296 
L 409.873411 71.911298 
L 409.987475 71.793564 
L 410.066926 71.682566 
L 410.185838 71.475008 
L 410.269527 71.36401 
L 410.383551 71.129183 
L 410.438802 71.018185 
L 410.549826 70.844952 
L 410.549906 70.844952 
L 410.622282 70.733955 
L 410.733299 70.46384 
L 410.733382 70.46384 
L 410.776018 70.352842 
L 410.88705 70.078236 
L 410.887114 70.078236 
L 410.930028 69.967238 
L 411.047629 69.706105 
L 411.100068 69.595108 
L 411.218733 69.292271 
L 411.256795 69.181273 
L 411.37256 68.806897 
L 411.405085 68.6959 
L 411.521248 68.289123 
L 411.570361 68.178125 
L 411.699295 67.822035 
L 411.729124 67.711038 
L 411.840176 67.416221 
L 411.840224 67.416221 
L 411.878935 67.305223 
L 411.989792 67.093494 
L 411.990015 67.093494 
L 412.046908 66.982496 
L 412.161155 66.857063 
L 412.421087 66.746065 
L 412.537748 66.523429 
L 412.606248 66.412431 
L 412.722331 66.011429 
L 412.748097 65.900431 
L 412.859105 65.417624 
L 412.859205 65.417624 
L 412.883233 65.306947 
L 412.997743 64.758376 
L 413.019513 64.647378 
L 413.138934 63.977544 
L 413.157493 63.866546 
L 413.277879 63.119398 
L 413.294076 63.008722 
L 413.409765 62.271198 
L 413.427053 62.160201 
L 413.538038 61.399258 
L 413.538149 61.399258 
L 413.553446 61.288261 
L 413.664554 60.450326 
L 413.677747 60.339328 
L 413.788843 59.457123 
L 413.788855 59.457123 
L 413.80226 59.346125 
L 413.913352 58.344581 
L 413.913364 58.344581 
L 413.927047 58.233584 
L 414.038151 57.175258 
L 414.049855 57.064261 
L 414.160576 55.989895 
L 414.160935 55.989895 
L 414.173057 55.878897 
L 414.284153 55.241784 
L 414.284165 55.241784 
L 414.366655 55.130787 
L 414.477719 54.953704 
L 414.529457 54.842707 
L 414.644787 54.502977 
L 414.677699 54.39198 
L 414.719793 54.144 
L 414.72 54.144 
" clip-path="url(#pa9d675971d)" style="fill: none; stroke: #ff8c00; stroke-width: 2; stroke-linecap: square"/>
   </g>
   <g id="line2d_14">
    <path d="M 57.6 307.584 
L 414.72 54.144 
" clip-path="url(#pa9d675971d)" style="fill: none; stroke-dasharray: 7.4,3.2; stroke-dashoffset: 0; stroke: #000080; stroke-width: 2"/>
   </g>
   <g id="patch_3">
    <path d="M 57.6 307.584 
L 57.6 41.472 
" style="fill: none; stroke: #000000; stroke-width: 0.8; stroke-linejoin: miter; stroke-linecap: square"/>
   </g>
   <g id="patch_4">
    <path d="M 414.72 307.584 
L 414.72 41.472 
" style="fill: none; stroke: #000000; stroke-width: 0.8; stroke-linejoin: miter; stroke-linecap: square"/>
   </g>
   <g id="patch_5">
    <path d="M 57.6 307.584 
L 414.72 307.584 
" style="fill: none; stroke: #000000; stroke-width: 0.8; stroke-linejoin: miter; stroke-linecap: square"/>
   </g>
   <g id="patch_6">
    <path d="M 57.6 41.472 
L 414.72 41.472 
" style="fill: none; stroke: #000000; stroke-width: 0.8; stroke-linejoin: miter; stroke-linecap: square"/>
   </g>
   <g id="text_15">
    <!-- Receiver Operating Characteristic -->
    <g transform="translate(134.656875 35.472) scale(0.12 -0.12)">
     <defs>
      <path id="DejaVuSans-63" d="M 3122 3366 
L 3122 2828 
Q 2878 2963 2633 3030 
Q 2388 3097 2138 3097 
Q 1578 3097 1268 2742 
Q 959 2388 959 1747 
Q 959 1106 1268 751 
Q 1578 397 2138 397 
Q 2388 397 2633 464 
Q 2878 531 3122 666 
L 3122 134 
Q 2881 22 2623 -34 
Q 2366 -91 2075 -91 
Q 1284 -91 818 406 
Q 353 903 353 1747 
Q 353 2603 823 3093 
Q 1294 3584 2113 3584 
Q 2378 3584 2631 3529 
Q 2884 3475 3122 3366 
z
" transform="scale(0.015625)"/>
      <path id="DejaVuSans-4f" d="M 2522 4238 
Q 1834 4238 1429 3725 
Q 1025 3213 1025 2328 
Q 1025 1447 1429 934 
Q 1834 422 2522 422 
Q 3209 422 3611 934 
Q 4013 1447 4013 2328 
Q 4013 3213 3611 3725 
Q 3209 4238 2522 4238 
z
M 2522 4750 
Q 3503 4750 4090 4092 
Q 4678 3434 4678 2328 
Q 4678 1225 4090 567 
Q 3503 -91 2522 -91 
Q 1538 -91 948 565 
Q 359 1222 359 2328 
Q 359 3434 948 4092 
Q 1538 4750 2522 4750 
z
" transform="scale(0.015625)"/>
      <path id="DejaVuSans-70" d="M 1159 525 
L 1159 -1331 
L 581 -1331 
L 581 3500 
L 1159 3500 
L 1159 2969 
Q 1341 3281 1617 3432 
Q 1894 3584 2278 3584 
Q 2916 3584 3314 3078 
Q 3713 2572 3713 1747 
Q 3713 922 3314 415 
Q 2916 -91 2278 -91 
Q 1894 -91 1617 61 
Q 1341 213 1159 525 
z
M 3116 1747 
Q 3116 2381 2855 2742 
Q 2594 3103 2138 3103 
Q 1681 3103 1420 2742 
Q 1159 2381 1159 1747 
Q 1159 1113 1420 752 
Q 1681 391 2138 391 
Q 2594 391 2855 752 
Q 3116 1113 3116 1747 
z
" transform="scale(0.015625)"/>
      <path id="DejaVuSans-6e" d="M 3513 2113 
L 3513 0 
L 2938 0 
L 2938 2094 
Q 2938 2591 2744 2837 
Q 2550 3084 2163 3084 
Q 1697 3084 1428 2787 
Q 1159 2491 1159 1978 
L 1159 0 
L 581 0 
L 581 3500 
L 1159 3500 
L 1159 2956 
Q 1366 3272 1645 3428 
Q 1925 3584 2291 3584 
Q 2894 3584 3203 3211 
Q 3513 2838 3513 2113 
z
" transform="scale(0.015625)"/>
      <path id="DejaVuSans-67" d="M 2906 1791 
Q 2906 2416 2648 2759 
Q 2391 3103 1925 3103 
Q 1463 3103 1205 2759 
Q 947 2416 947 1791 
Q 947 1169 1205 825 
Q 1463 481 1925 481 
Q 2391 481 2648 825 
Q 2906 1169 2906 1791 
z
M 3481 434 
Q 3481 -459 3084 -895 
Q 2688 -1331 1869 -1331 
Q 1566 -1331 1297 -1286 
Q 1028 -1241 775 -1147 
L 775 -588 
Q 1028 -725 1275 -790 
Q 1522 -856 1778 -856 
Q 2344 -856 2625 -561 
Q 2906 -266 2906 331 
L 2906 616 
Q 2728 306 2450 153 
Q 2172 0 1784 0 
Q 1141 0 747 490 
Q 353 981 353 1791 
Q 353 2603 747 3093 
Q 1141 3584 1784 3584 
Q 2172 3584 2450 3431 
Q 2728 3278 2906 2969 
L 2906 3500 
L 3481 3500 
L 3481 434 
z
" transform="scale(0.015625)"/>
      <path id="DejaVuSans-43" d="M 4122 4306 
L 4122 3641 
Q 3803 3938 3442 4084 
Q 3081 4231 2675 4231 
Q 1875 4231 1450 3742 
Q 1025 3253 1025 2328 
Q 1025 1406 1450 917 
Q 1875 428 2675 428 
Q 3081 428 3442 575 
Q 3803 722 4122 1019 
L 4122 359 
Q 3791 134 3420 21 
Q 3050 -91 2638 -91 
Q 1578 -91 968 557 
Q 359 1206 359 2328 
Q 359 3453 968 4101 
Q 1578 4750 2638 4750 
Q 3056 4750 3426 4639 
Q 3797 4528 4122 4306 
z
" transform="scale(0.015625)"/>
      <path id="DejaVuSans-68" d="M 3513 2113 
L 3513 0 
L 2938 0 
L 2938 2094 
Q 2938 2591 2744 2837 
Q 2550 3084 2163 3084 
Q 1697 3084 1428 2787 
Q 1159 2491 1159 1978 
L 1159 0 
L 581 0 
L 581 4863 
L 1159 4863 
L 1159 2956 
Q 1366 3272 1645 3428 
Q 1925 3584 2291 3584 
Q 2894 3584 3203 3211 
Q 3513 2838 3513 2113 
z
" transform="scale(0.015625)"/>
     </defs>
     <use xlink:href="#DejaVuSans-52"/>
     <use xlink:href="#DejaVuSans-65" x="64.982422"/>
     <use xlink:href="#DejaVuSans-63" x="126.505859"/>
     <use xlink:href="#DejaVuSans-65" x="181.486328"/>
     <use xlink:href="#DejaVuSans-69" x="243.009766"/>
     <use xlink:href="#DejaVuSans-76" x="270.792969"/>
     <use xlink:href="#DejaVuSans-65" x="329.972656"/>
     <use xlink:href="#DejaVuSans-72" x="391.496094"/>
     <use xlink:href="#DejaVuSans-20" x="432.609375"/>
     <use xlink:href="#DejaVuSans-4f" x="464.396484"/>
     <use xlink:href="#DejaVuSans-70" x="543.107422"/>
     <use xlink:href="#DejaVuSans-65" x="606.583984"/>
     <use xlink:href="#DejaVuSans-72" x="668.107422"/>
     <use xlink:href="#DejaVuSans-61" x="709.220703"/>
     <use xlink:href="#DejaVuSans-74" x="770.5"/>
     <use xlink:href="#DejaVuSans-69" x="809.708984"/>
     <use xlink:href="#DejaVuSans-6e" x="837.492188"/>
     <use xlink:href="#DejaVuSans-67" x="900.871094"/>
     <use xlink:href="#DejaVuSans-20" x="964.347656"/>
     <use xlink:href="#DejaVuSans-43" x="996.134766"/>
     <use xlink:href="#DejaVuSans-68" x="1065.958984"/>
     <use xlink:href="#DejaVuSans-61" x="1129.337891"/>
     <use xlink:href="#DejaVuSans-72" x="1190.617188"/>
     <use xlink:href="#DejaVuSans-61" x="1231.730469"/>
     <use xlink:href="#DejaVuSans-63" x="1293.009766"/>
     <use xlink:href="#DejaVuSans-74" x="1347.990234"/>
     <use xlink:href="#DejaVuSans-65" x="1387.199219"/>
     <use xlink:href="#DejaVuSans-72" x="1448.722656"/>
     <use xlink:href="#DejaVuSans-69" x="1489.835938"/>
     <use xlink:href="#DejaVuSans-73" x="1517.619141"/>
     <use xlink:href="#DejaVuSans-74" x="1569.71875"/>
     <use xlink:href="#DejaVuSans-69" x="1608.927734"/>
     <use xlink:href="#DejaVuSans-63" x="1636.710938"/>
    </g>
   </g>
   <g id="legend_1">
    <g id="patch_7">
     <path d="M 252.441875 302.584 
L 407.72 302.584 
Q 409.72 302.584 409.72 300.584 
L 409.72 286.905875 
Q 409.72 284.905875 407.72 284.905875 
L 252.441875 284.905875 
Q 250.441875 284.905875 250.441875 286.905875 
L 250.441875 300.584 
Q 250.441875 302.584 252.441875 302.584 
z
" style="fill: #ffffff; opacity: 0.8; stroke: #cccccc; stroke-linejoin: miter"/>
    </g>
    <g id="line2d_15">
     <path d="M 254.441875 293.004312 
L 264.441875 293.004312 
L 274.441875 293.004312 
" style="fill: none; stroke: #ff8c00; stroke-width: 2; stroke-linecap: square"/>
    </g>
    <g id="text_16">
     <!-- ROC curve (area = 0.38) -->
     <g transform="translate(282.441875 296.504312) scale(0.1 -0.1)">
      <defs>
       <path id="DejaVuSans-28" d="M 1984 4856 
Q 1566 4138 1362 3434 
Q 1159 2731 1159 2009 
Q 1159 1288 1364 580 
Q 1569 -128 1984 -844 
L 1484 -844 
Q 1016 -109 783 600 
Q 550 1309 550 2009 
Q 550 2706 781 3412 
Q 1013 4119 1484 4856 
L 1984 4856 
z
" transform="scale(0.015625)"/>
       <path id="DejaVuSans-3d" d="M 678 2906 
L 4684 2906 
L 4684 2381 
L 678 2381 
L 678 2906 
z
M 678 1631 
L 4684 1631 
L 4684 1100 
L 678 1100 
L 678 1631 
z
" transform="scale(0.015625)"/>
       <path id="DejaVuSans-33" d="M 2597 2516 
Q 3050 2419 3304 2112 
Q 3559 1806 3559 1356 
Q 3559 666 3084 287 
Q 2609 -91 1734 -91 
Q 1441 -91 1130 -33 
Q 819 25 488 141 
L 488 750 
Q 750 597 1062 519 
Q 1375 441 1716 441 
Q 2309 441 2620 675 
Q 2931 909 2931 1356 
Q 2931 1769 2642 2001 
Q 2353 2234 1838 2234 
L 1294 2234 
L 1294 2753 
L 1863 2753 
Q 2328 2753 2575 2939 
Q 2822 3125 2822 3475 
Q 2822 3834 2567 4026 
Q 2313 4219 1838 4219 
Q 1578 4219 1281 4162 
Q 984 4106 628 3988 
L 628 4550 
Q 988 4650 1302 4700 
Q 1616 4750 1894 4750 
Q 2613 4750 3031 4423 
Q 3450 4097 3450 3541 
Q 3450 3153 3228 2886 
Q 3006 2619 2597 2516 
z
" transform="scale(0.015625)"/>
       <path id="DejaVuSans-29" d="M 513 4856 
L 1013 4856 
Q 1481 4119 1714 3412 
Q 1947 2706 1947 2009 
Q 1947 1309 1714 600 
Q 1481 -109 1013 -844 
L 513 -844 
Q 928 -128 1133 580 
Q 1338 1288 1338 2009 
Q 1338 2731 1133 3434 
Q 928 4138 513 4856 
z
" transform="scale(0.015625)"/>
      </defs>
      <use xlink:href="#DejaVuSans-52"/>
      <use xlink:href="#DejaVuSans-4f" x="69.482422"/>
      <use xlink:href="#DejaVuSans-43" x="148.193359"/>
      <use xlink:href="#DejaVuSans-20" x="218.017578"/>
      <use xlink:href="#DejaVuSans-63" x="249.804688"/>
      <use xlink:href="#DejaVuSans-75" x="304.785156"/>
      <use xlink:href="#DejaVuSans-72" x="368.164062"/>
      <use xlink:href="#DejaVuSans-76" x="409.277344"/>
      <use xlink:href="#DejaVuSans-65" x="468.457031"/>
      <use xlink:href="#DejaVuSans-20" x="529.980469"/>
      <use xlink:href="#DejaVuSans-28" x="561.767578"/>
      <use xlink:href="#DejaVuSans-61" x="600.78125"/>
      <use xlink:href="#DejaVuSans-72" x="662.060547"/>
      <use xlink:href="#DejaVuSans-65" x="700.923828"/>
      <use xlink:href="#DejaVuSans-61" x="762.447266"/>
      <use xlink:href="#DejaVuSans-20" x="823.726562"/>
      <use xlink:href="#DejaVuSans-3d" x="855.513672"/>
      <use xlink:href="#DejaVuSans-20" x="939.302734"/>
      <use xlink:href="#DejaVuSans-30" x="971.089844"/>
      <use xlink:href="#DejaVuSans-2e" x="1034.712891"/>
      <use xlink:href="#DejaVuSans-33" x="1066.5"/>
      <use xlink:href="#DejaVuSans-38" x="1130.123047"/>
      <use xlink:href="#DejaVuSans-29" x="1193.746094"/>
     </g>
    </g>
   </g>
  </g>
 </g>
 <defs>
  <clipPath id="pa9d675971d">
   <rect x="57.6" y="41.472" width="357.12" height="266.112"/>
  </clipPath>
 </defs>
</svg>
